<?xml version="1.0" encoding="utf-8"?>
<svg id="master-artboard" viewBox="0 0 193.5785369873047 207.02340698242188" version="1.1" xmlns="http://www.w3.org/2000/svg" x="0px" y="0px" style="enable-background:new 0 0 1400 980;" width="193.5785369873047px" height="207.02340698242188px"><rect id="ee-background" x="0" y="0" width="193.5785369873047" height="207.02340698242188" style="fill: white; fill-opacity: 0; pointer-events: none;"/><defs><style id="ee-google-fonts">@import url(https://fonts.googleapis.com/css?family=Fjalla+One:400|Roboto:100,100italic,300,300italic,400,400italic,500,500italic,700,700italic,900,900italic);</style></defs>

































































































<g transform="matrix(0.6490644617870538, 0, 0, 0.6490644617870538, -467.56238312359255, -51.9597482201724)"><g transform="matrix(1, 0, 0, 1, 0, 0)"><path style="fill:#FFF7CA;" d="M1003.7,240.7c-0.9-27.4-10.6-53.9-27.6-75.4l0.1-0.1l-3.2-3.7l-2.4-2.8l0,0&#10;&#9;c-23.5-26-56.4-41.3-91.3-42.4v-0.1h-8.6v0.1c-34.9,1.2-67.8,16.4-91.3,42.4l0,0l-2.4,2.8l-3.2,3.7l0.1,0.1&#10;&#9;c-17.8,22.6-27.6,50.7-27.6,79.7c0,28.9,9.8,57.1,27.6,79.7l-0.1,0.1l3.2,3.7c0,0,0,0,0,0l2.4,2.8l0,0c23.5,26,56.4,41.3,91.3,42.4&#10;&#9;v0.1h8.6v-0.1c34.9-1.2,67.8-16.4,91.3-42.4l0,0l2.4-2.8l3.2-3.7l-0.1-0.1c17-21.5,26.6-48,27.6-75.4h0.1L1003.7,240.7L1003.7,240.7&#10;&#9;z M841.6,129.5c0,0-0.1,0.1-0.1,0.1c-0.2,0.2-0.4,0.4-0.7,0.6c-0.2,0.1-0.3,0.3-0.5,0.4c-0.2,0.2-0.5,0.4-0.7,0.6&#10;&#9;c-0.1,0.1-0.3,0.3-0.4,0.4c-0.3,0.2-0.5,0.5-0.8,0.7c-0.1,0.1-0.2,0.2-0.4,0.3c-0.4,0.4-0.7,0.7-1.1,1.1c-0.6,0.6-1.2,1.2-1.7,1.8&#10;&#9;c0,0.1-0.1,0.1-0.2,0.2c-0.5,0.6-1.1,1.2-1.6,1.8c-0.1,0.1-0.1,0.2-0.2,0.3c-0.5,0.6-1,1.2-1.6,1.8c-0.1,0.1-0.2,0.2-0.2,0.3&#10;&#9;c-0.5,0.6-1,1.3-1.5,1.9c-0.1,0.1-0.2,0.2-0.2,0.3c-0.5,0.7-1,1.3-1.5,2c-0.1,0.1-0.1,0.2-0.2,0.3c-0.5,0.7-1,1.4-1.5,2.1&#10;&#9;c0,0.1-0.1,0.1-0.1,0.2c-1,1.5-2,3.1-3,4.7c0,0.1-0.1,0.1-0.1,0.2c-0.5,0.8-0.9,1.5-1.4,2.3c-0.1,0.1-0.1,0.2-0.2,0.3&#10;&#9;c-0.4,0.8-0.9,1.5-1.3,2.3c-0.1,0.1-0.1,0.3-0.2,0.4c-0.4,0.8-0.8,1.6-1.3,2.4c-0.1,0.1-0.1,0.3-0.2,0.4c-0.4,0.8-0.8,1.6-1.2,2.5&#10;&#9;c-0.1,0.1-0.1,0.2-0.2,0.4c-0.4,0.9-0.8,1.7-1.2,2.6c0,0.1-0.1,0.2-0.1,0.3c-0.4,0.9-0.8,1.8-1.2,2.8c0,0,0,0,0,0&#10;&#9;c-0.4,0.9-0.8,1.9-1.2,2.8c0,0.1-0.1,0.2-0.1,0.3c-0.4,0.9-0.7,1.8-1.1,2.7c0,0.1-0.1,0.2-0.1,0.2c-0.1,0-0.2-0.1-0.3-0.1&#10;&#9;c-1-0.3-2.1-0.7-3.1-1c-0.1,0-0.3-0.1-0.4-0.1c-0.9-0.3-1.8-0.6-2.7-1c-0.2-0.1-0.5-0.2-0.7-0.3c-1-0.4-2-0.8-2.9-1.1&#10;&#9;c-0.1-0.1-0.3-0.1-0.4-0.2c-0.9-0.3-1.7-0.7-2.5-1.1c-0.2-0.1-0.4-0.2-0.7-0.3c-0.9-0.4-1.9-0.8-2.8-1.2c-0.1-0.1-0.3-0.1-0.4-0.2&#10;&#9;c-0.8-0.4-1.6-0.8-2.4-1.1c-0.2-0.1-0.4-0.2-0.6-0.3c-0.9-0.4-1.7-0.9-2.6-1.3c-0.1-0.1-0.3-0.1-0.4-0.2c-0.7-0.4-1.5-0.8-2.2-1.2&#10;&#9;c-0.1-0.1-0.2-0.1-0.4-0.2C801.8,147.1,820.8,135.5,841.6,129.5z M781.1,169.9c0.1,0.1,0.3,0.1,0.4,0.2c0.2,0.1,0.4,0.3,0.6,0.4&#10;&#9;c0.4,0.2,0.8,0.5,1.2,0.7c0.2,0.1,0.4,0.2,0.6,0.4c0.5,0.3,1,0.6,1.6,0.9c0.1,0.1,0.2,0.1,0.3,0.2c0.6,0.3,1.3,0.7,1.9,1&#10;&#9;c0.2,0.1,0.4,0.2,0.6,0.3c0.5,0.2,0.9,0.5,1.4,0.7c0.2,0.1,0.5,0.2,0.7,0.3c0.5,0.2,0.9,0.4,1.4,0.7c0.2,0.1,0.4,0.2,0.6,0.3&#10;&#9;c0.7,0.3,1.3,0.6,2,0.9c0,0,0.1,0,0.1,0c0.7,0.3,1.3,0.6,2,0.9c0.2,0.1,0.4,0.2,0.7,0.3c0.5,0.2,1,0.4,1.5,0.6&#10;&#9;c0.2,0.1,0.5,0.2,0.7,0.3c0.5,0.2,1,0.4,1.5,0.6c0.2,0.1,0.4,0.2,0.6,0.2c0.7,0.3,1.4,0.5,2.2,0.8c0.1,0,0.2,0.1,0.4,0.1&#10;&#9;c0.6,0.2,1.2,0.4,1.8,0.7c0.2,0.1,0.5,0.2,0.7,0.3c0.5,0.2,1,0.4,1.6,0.5c0.2,0.1,0.5,0.2,0.8,0.3c0.1,0,0.3,0.1,0.4,0.1l0,0.1&#10;&#9;l0.1,0c-0.4,1.1-0.7,2.2-1,3.4c-0.1,0.2-0.1,0.4-0.2,0.6c-0.3,1-0.6,2.1-0.9,3.1c-0.1,0.4-0.2,0.9-0.4,1.3c-0.2,0.8-0.4,1.6-0.6,2.4&#10;&#9;c-0.1,0.5-0.2,1-0.4,1.5c-0.2,0.8-0.4,1.5-0.6,2.3c-0.1,0.5-0.2,1-0.4,1.6c-0.2,0.8-0.3,1.6-0.5,2.3c-0.1,0.5-0.2,1-0.3,1.5&#10;&#9;c-0.2,0.8-0.3,1.7-0.5,2.5c-0.1,0.5-0.2,1-0.3,1.4c-0.2,1-0.3,2-0.5,3c-0.1,0.3-0.1,0.7-0.2,1c-0.2,1.3-0.4,2.6-0.6,4&#10;&#9;c0,0.3-0.1,0.6-0.1,0.9c-0.1,1-0.3,2.1-0.4,3.1c-0.1,0.5-0.1,1-0.2,1.4c-0.1,0.9-0.2,1.7-0.3,2.6c-0.1,0.5-0.1,1.1-0.2,1.6&#10;&#9;c-0.1,0.8-0.2,1.7-0.2,2.5c0,0.5-0.1,1.1-0.1,1.6c-0.1,0.9-0.1,1.7-0.2,2.6c0,0.5-0.1,1.1-0.1,1.6c-0.1,0.9-0.1,1.8-0.1,2.7&#10;&#9;c0,0.5,0,0.9-0.1,1.4c0,1.2-0.1,2.4-0.1,3.6c0,0.2,0,0.4,0,0.6c0,0,0,0.1,0,0.1h-45.2C755.8,214.9,765,190,781.1,169.9z&#10;&#9; M785.7,317.6c-0.6,0.3-1.1,0.6-1.7,0.9c-0.2,0.1-0.4,0.2-0.6,0.3c-0.4,0.2-0.9,0.5-1.3,0.7c-0.2,0.1-0.4,0.2-0.6,0.3&#10;&#9;c-0.1,0.1-0.3,0.2-0.4,0.2c-16.1-20.1-25.4-45-26.3-70.8h45.2c0,0,0,0.1,0,0.1c0,0.2,0,0.4,0,0.6c0,1.2,0.1,2.4,0.1,3.6&#10;&#9;c0,0.5,0,0.9,0.1,1.4c0,0.9,0.1,1.8,0.1,2.7c0,0.5,0.1,1.1,0.1,1.6c0.1,0.9,0.1,1.7,0.2,2.6c0,0.5,0.1,1.1,0.1,1.6&#10;&#9;c0.1,0.8,0.1,1.7,0.2,2.5c0,0.5,0.1,1.1,0.2,1.6c0.1,0.9,0.2,1.8,0.3,2.6c0.1,0.5,0.1,1,0.2,1.4c0.1,1,0.3,2.1,0.4,3.1&#10;&#9;c0,0.3,0.1,0.6,0.1,0.9c0.2,1.3,0.4,2.7,0.6,4c0.1,0.3,0.1,0.7,0.2,1c0.2,1,0.3,2,0.5,3c0.1,0.5,0.2,1,0.3,1.4&#10;&#9;c0.2,0.8,0.3,1.7,0.5,2.5c0.1,0.5,0.2,1,0.3,1.5c0.2,0.8,0.3,1.6,0.5,2.3c0.1,0.5,0.2,1,0.4,1.6c0.2,0.8,0.4,1.6,0.6,2.3&#10;&#9;c0.1,0.5,0.2,1,0.4,1.5c0.2,0.8,0.4,1.6,0.6,2.4c0.1,0.4,0.2,0.9,0.4,1.3c0.3,1,0.6,2.1,0.9,3.1c0.1,0.2,0.1,0.4,0.2,0.6&#10;&#9;c0.3,1.1,0.7,2.2,1,3.4l-0.1,0l0,0.1c-0.1,0-0.3,0.1-0.4,0.1c-0.2,0.1-0.5,0.2-0.7,0.2c-0.5,0.2-1.1,0.4-1.6,0.5&#10;&#9;c-0.2,0.1-0.5,0.2-0.7,0.2c-0.6,0.2-1.3,0.5-1.9,0.7c-0.1,0-0.2,0.1-0.3,0.1c-0.7,0.3-1.5,0.5-2.2,0.8c-0.2,0.1-0.4,0.1-0.6,0.2&#10;&#9;c-0.5,0.2-1.1,0.4-1.6,0.6c-0.2,0.1-0.5,0.2-0.7,0.3c-0.5,0.2-1,0.4-1.5,0.6c-0.2,0.1-0.4,0.2-0.6,0.3c-1.4,0.6-2.8,1.2-4.1,1.8&#10;&#9;c-0.2,0.1-0.4,0.2-0.6,0.3c-0.5,0.2-1,0.5-1.5,0.7c-0.2,0.1-0.4,0.2-0.6,0.3c-0.5,0.2-1,0.5-1.5,0.7c-0.2,0.1-0.3,0.2-0.5,0.3&#10;&#9;c-0.6,0.3-1.3,0.7-1.9,1C785.8,317.5,785.8,317.5,785.7,317.6z M786.8,326.7c0.1-0.1,0.2-0.1,0.3-0.2c0.7-0.4,1.5-0.8,2.2-1.2&#10;&#9;c0.1-0.1,0.2-0.1,0.4-0.2c0.9-0.5,1.7-0.9,2.6-1.3c0.2-0.1,0.4-0.2,0.6-0.3c0.8-0.4,1.6-0.8,2.4-1.1c0.1-0.1,0.3-0.1,0.4-0.2&#10;&#9;c0.9-0.4,1.8-0.8,2.8-1.2c0.2-0.1,0.4-0.2,0.7-0.3c0.8-0.4,1.7-0.7,2.5-1.1c0.1-0.1,0.3-0.1,0.4-0.2c1-0.4,1.9-0.8,2.9-1.1&#10;&#9;c0.2-0.1,0.5-0.2,0.7-0.3c0.9-0.3,1.8-0.7,2.7-1c0.1,0,0.3-0.1,0.4-0.1c1-0.4,2-0.7,3.1-1c0.1,0,0.2-0.1,0.3-0.1&#10;&#9;c0,0.1,0.1,0.2,0.1,0.2c0.4,0.9,0.7,1.8,1.1,2.7c0,0.1,0.1,0.2,0.1,0.3c0.4,0.9,0.8,1.9,1.2,2.8c0,0,0,0,0,0&#10;&#9;c0.4,0.9,0.8,1.8,1.2,2.8c0,0.1,0.1,0.2,0.1,0.3c0.4,0.9,0.8,1.7,1.2,2.6c0.1,0.1,0.1,0.2,0.2,0.4c0.4,0.8,0.8,1.6,1.2,2.5&#10;&#9;c0.1,0.1,0.1,0.3,0.2,0.4c0.4,0.8,0.8,1.6,1.3,2.4c0.1,0.1,0.1,0.3,0.2,0.4c0.4,0.8,0.9,1.6,1.3,2.3c0.1,0.1,0.1,0.2,0.2,0.3&#10;&#9;c0.5,0.8,0.9,1.6,1.4,2.3c0,0.1,0.1,0.1,0.1,0.2c0.5,0.8,1,1.6,1.5,2.4c0,0,0,0,0,0c0.5,0.8,1,1.5,1.5,2.3c0,0.1,0.1,0.1,0.1,0.2&#10;&#9;c0.5,0.7,1,1.4,1.5,2.1c0.1,0.1,0.1,0.2,0.2,0.3c0.5,0.7,1,1.3,1.5,2c0.1,0.1,0.2,0.2,0.2,0.3c0.5,0.6,1,1.3,1.5,1.9&#10;&#9;c0.1,0.1,0.2,0.2,0.2,0.3c0.5,0.6,1,1.2,1.6,1.8c0.1,0.1,0.1,0.2,0.2,0.3c0.5,0.6,1.1,1.2,1.6,1.8c0.1,0.1,0.1,0.1,0.2,0.2&#10;&#9;c0.6,0.6,1.2,1.2,1.7,1.8c0.4,0.4,0.7,0.7,1.1,1.1c0.1,0.1,0.2,0.2,0.4,0.3c0.3,0.2,0.5,0.5,0.8,0.7c0.1,0.1,0.3,0.3,0.4,0.4&#10;&#9;c0.2,0.2,0.5,0.4,0.7,0.6c0.2,0.1,0.3,0.3,0.5,0.4c0.2,0.2,0.4,0.4,0.6,0.6c0,0,0.1,0.1,0.1,0.1&#10;&#9;C820.8,354.5,801.8,342.9,786.8,326.7z M870.7,365c0,0-0.1,0-0.1,0c-0.5-0.1-1-0.1-1.6-0.2c-0.1,0-0.1,0-0.2,0&#10;&#9;c-0.5-0.1-1.1-0.2-1.6-0.3c-0.1,0-0.2,0-0.3-0.1c-0.5-0.1-1-0.2-1.6-0.4c-0.1,0-0.2-0.1-0.3-0.1c-0.5-0.1-1.1-0.3-1.6-0.5&#10;&#9;c0,0-0.1,0-0.1,0c-0.5-0.2-1-0.4-1.6-0.5c-0.1,0-0.1,0-0.2-0.1c-0.5-0.2-1-0.4-1.6-0.6c-0.1,0-0.2-0.1-0.3-0.1&#10;&#9;c-0.5-0.2-1-0.5-1.5-0.7c-0.1,0-0.2-0.1-0.3-0.1c-0.5-0.3-1.1-0.5-1.6-0.8c0,0,0,0-0.1,0c-0.5-0.3-1-0.6-1.5-0.9&#10;&#9;c-0.1,0-0.1-0.1-0.2-0.1c-0.5-0.3-1-0.6-1.5-0.9c-0.1-0.1-0.2-0.1-0.3-0.2c-0.5-0.3-1-0.7-1.5-1c-0.1-0.1-0.2-0.1-0.2-0.2&#10;&#9;c-0.5-0.4-1-0.7-1.5-1.1c0,0,0,0,0,0c-0.5-0.4-1-0.8-1.5-1.2c-0.1-0.1-0.1-0.1-0.2-0.2c-0.5-0.4-1-0.8-1.4-1.2&#10;&#9;c-0.1-0.1-0.2-0.2-0.3-0.2c-0.5-0.4-0.9-0.8-1.4-1.3c-0.1-0.1-0.1-0.1-0.2-0.2c-0.5-0.5-1-0.9-1.5-1.4c-0.5-0.5-1-1.1-1.6-1.6&#10;&#9;c-0.1-0.1-0.1-0.1-0.2-0.2c-0.5-0.5-1-1.1-1.5-1.6c-0.1-0.1-0.1-0.2-0.2-0.3c-0.5-0.5-0.9-1.1-1.4-1.7c-0.1-0.1-0.2-0.2-0.2-0.3&#10;&#9;c-0.5-0.6-0.9-1.1-1.4-1.7c-0.1-0.1-0.1-0.2-0.2-0.3c-0.5-0.6-0.9-1.2-1.4-1.8c0-0.1-0.1-0.1-0.1-0.2c-0.5-0.7-0.9-1.3-1.4-2&#10;&#9;c0,0,0,0,0,0c-0.5-0.7-0.9-1.4-1.4-2.1c0-0.1-0.1-0.2-0.1-0.2c-0.4-0.7-0.9-1.3-1.3-2c-0.1-0.1-0.1-0.2-0.2-0.3&#10;&#9;c-0.4-0.7-0.8-1.4-1.2-2.1c-0.1-0.1-0.1-0.2-0.2-0.4c-0.4-0.7-0.8-1.4-1.2-2.1c-0.1-0.1-0.1-0.2-0.2-0.3c-0.4-0.7-0.8-1.5-1.2-2.2&#10;&#9;c0-0.1-0.1-0.1-0.1-0.2c-0.4-0.8-0.8-1.6-1.2-2.4c0,0,0,0,0,0c-0.4-0.8-0.8-1.6-1.2-2.5c0-0.1-0.1-0.2-0.1-0.3&#10;&#9;c-0.4-0.8-0.7-1.6-1.1-2.4c-0.1-0.1-0.1-0.2-0.2-0.4c-0.3-0.8-0.7-1.6-1-2.4c-0.1-0.1-0.1-0.3-0.2-0.4c-0.3-0.8-0.7-1.6-1-2.5&#10;&#9;c0,0,0-0.1,0-0.1c0.5-0.1,1.1-0.3,1.6-0.4c0.3-0.1,0.7-0.2,1-0.3c1.1-0.3,2.2-0.5,3.3-0.8c0.1,0,0.1,0,0.2,0c1-0.2,2.1-0.5,3.1-0.7&#10;&#9;c0.4-0.1,0.7-0.2,1.1-0.2c0.7-0.2,1.5-0.3,2.3-0.5c0.4-0.1,0.8-0.2,1.3-0.2c0.7-0.1,1.4-0.3,2.1-0.4c0.4-0.1,0.9-0.2,1.3-0.2&#10;&#9;c0.7-0.1,1.5-0.2,2.2-0.4c0.4-0.1,0.8-0.1,1.2-0.2c0.8-0.1,1.7-0.3,2.5-0.4c0.3,0,0.6-0.1,0.9-0.1c1.2-0.2,2.3-0.3,3.5-0.5&#10;&#9;c0.3,0,0.5-0.1,0.8-0.1c0.9-0.1,1.8-0.2,2.7-0.3c0.4,0,0.8-0.1,1.3-0.1c0.8-0.1,1.5-0.1,2.3-0.2c0.5,0,0.9-0.1,1.4-0.1&#10;&#9;c0.7-0.1,1.5-0.1,2.2-0.2c0.5,0,0.9-0.1,1.4-0.1c0.8-0.1,1.5-0.1,2.3-0.1c0.4,0,0.8,0,1.3-0.1c1,0,1.9-0.1,2.9-0.1&#10;&#9;c0.2,0,0.5,0,0.7,0c1.1,0,2.2-0.1,3.4-0.1V365z M870.7,297.7c-1.2,0-2.4,0.1-3.6,0.1c-0.3,0-0.6,0-0.9,0c-1,0-1.9,0.1-2.9,0.1&#10;&#9;c-0.4,0-0.9,0-1.3,0.1c-0.8,0-1.6,0.1-2.4,0.1c-0.5,0-0.9,0.1-1.4,0.1c-0.8,0.1-1.6,0.1-2.3,0.2c-0.5,0-0.9,0.1-1.4,0.1&#10;&#9;c-0.8,0.1-1.6,0.1-2.4,0.2c-0.4,0-0.9,0.1-1.3,0.1c-0.9,0.1-1.8,0.2-2.7,0.3c-0.3,0-0.7,0.1-1,0.1c-1.2,0.2-2.5,0.3-3.7,0.5&#10;&#9;c-0.1,0-0.3,0-0.4,0.1c-1.1,0.2-2.2,0.3-3.2,0.5c-0.4,0.1-0.8,0.1-1.2,0.2c-0.8,0.1-1.6,0.3-2.4,0.4c-0.4,0.1-0.9,0.2-1.3,0.2&#10;&#9;c-0.8,0.1-1.5,0.3-2.3,0.4c-0.5,0.1-0.9,0.2-1.4,0.3c-0.7,0.1-1.5,0.3-2.2,0.5c-0.4,0.1-0.9,0.2-1.3,0.3c-0.8,0.2-1.6,0.4-2.4,0.5&#10;&#9;c-0.4,0.1-0.7,0.2-1.1,0.3c-1.1,0.3-2.2,0.5-3.3,0.8c-0.1,0-0.1,0-0.2,0c-1.1,0.3-2.1,0.5-3.1,0.8c-0.4-1.1-0.7-2.2-1-3.4&#10;&#9;c-0.1-0.3-0.2-0.6-0.3-0.9c-0.3-0.9-0.5-1.7-0.7-2.6c-0.1-0.4-0.2-0.9-0.3-1.3c-0.2-0.8-0.4-1.5-0.6-2.3c-0.1-0.5-0.2-0.9-0.4-1.4&#10;&#9;c-0.2-0.7-0.4-1.5-0.5-2.3c-0.1-0.5-0.2-1-0.3-1.4c-0.2-0.8-0.3-1.5-0.5-2.3c-0.1-0.5-0.2-0.9-0.3-1.4c-0.2-0.8-0.3-1.7-0.5-2.5&#10;&#9;c-0.1-0.4-0.2-0.8-0.2-1.2c-0.2-1.1-0.4-2.3-0.6-3.4c0-0.1,0-0.2-0.1-0.4c-0.2-1.3-0.4-2.6-0.6-3.8c-0.1-0.4-0.1-0.7-0.1-1.1&#10;&#9;c-0.1-0.9-0.2-1.8-0.4-2.8c-0.1-0.5-0.1-0.9-0.2-1.4c-0.1-0.8-0.2-1.7-0.3-2.5c-0.1-0.5-0.1-1-0.1-1.5c-0.1-0.8-0.1-1.6-0.2-2.4&#10;&#9;c0-0.5-0.1-1-0.1-1.5c-0.1-0.8-0.1-1.7-0.2-2.5c0-0.5-0.1-1-0.1-1.5c-0.1-0.9-0.1-1.8-0.1-2.8c0-0.4,0-0.8-0.1-1.2&#10;&#9;c-0.1-1.3-0.1-2.6-0.1-4h62.1V297.7z M870.7,240.7h-62.1c0-1.3,0.1-2.6,0.1-4c0-0.4,0-0.8,0.1-1.2c0-0.9,0.1-1.8,0.1-2.8&#10;&#9;c0-0.5,0.1-1,0.1-1.5c0.1-0.8,0.1-1.7,0.2-2.5c0-0.5,0.1-1,0.1-1.5c0.1-0.8,0.1-1.6,0.2-2.4c0-0.5,0.1-1,0.1-1.5&#10;&#9;c0.1-0.8,0.2-1.7,0.3-2.5c0.1-0.5,0.1-0.9,0.2-1.4c0.1-0.9,0.2-1.8,0.4-2.8c0-0.4,0.1-0.7,0.1-1.1c0.2-1.3,0.4-2.6,0.6-3.8&#10;&#9;c0-0.1,0-0.2,0.1-0.4c0.2-1.1,0.4-2.3,0.6-3.4c0.1-0.4,0.2-0.8,0.2-1.2c0.2-0.8,0.3-1.7,0.5-2.5c0.1-0.5,0.2-0.9,0.3-1.4&#10;&#9;c0.2-0.8,0.3-1.5,0.5-2.3c0.1-0.5,0.2-1,0.3-1.5c0.2-0.8,0.4-1.5,0.5-2.2c0.1-0.5,0.2-0.9,0.4-1.4c0.2-0.8,0.4-1.5,0.6-2.3&#10;&#9;c0.1-0.4,0.2-0.9,0.3-1.3c0.2-0.9,0.5-1.7,0.7-2.6c0.1-0.3,0.2-0.6,0.3-0.9c0.3-1.1,0.7-2.3,1-3.4c1,0.3,2.1,0.6,3.1,0.8&#10;&#9;c0.1,0,0.2,0,0.3,0.1c1,0.3,2.1,0.5,3.2,0.8c0.4,0.1,0.8,0.2,1.1,0.3c0.8,0.2,1.5,0.4,2.3,0.5c0.4,0.1,0.9,0.2,1.3,0.3&#10;&#9;c0.7,0.2,1.5,0.3,2.2,0.5c0.5,0.1,0.9,0.2,1.4,0.3c0.7,0.1,1.5,0.3,2.2,0.4c0.5,0.1,0.9,0.2,1.4,0.2c0.8,0.1,1.6,0.3,2.4,0.4&#10;&#9;c0.4,0.1,0.8,0.1,1.2,0.2c1,0.2,2.1,0.3,3.2,0.5c0.2,0,0.3,0,0.5,0.1c1.2,0.2,2.4,0.3,3.7,0.5c0.3,0,0.7,0.1,1,0.1&#10;&#9;c0.9,0.1,1.8,0.2,2.6,0.3c0.4,0,0.9,0.1,1.4,0.1c0.8,0.1,1.6,0.2,2.4,0.2c0.5,0,1,0.1,1.4,0.1c0.8,0.1,1.6,0.1,2.3,0.2&#10;&#9;c0.5,0,1,0.1,1.4,0.1c0.8,0.1,1.6,0.1,2.4,0.1c0.4,0,0.9,0.1,1.3,0.1c0.9,0,1.9,0.1,2.9,0.1c0.3,0,0.6,0,0.9,0&#10;&#9;c1.2,0,2.4,0.1,3.6,0.1V240.7z M870.7,183.7c-1.1,0-2.2,0-3.4-0.1c-0.2,0-0.4,0-0.6,0c-1,0-2-0.1-3-0.1c-0.4,0-0.8,0-1.2-0.1&#10;&#9;c-0.8,0-1.6-0.1-2.4-0.1c-0.4,0-0.9-0.1-1.3-0.1c-0.8-0.1-1.5-0.1-2.3-0.2c-0.4,0-0.9-0.1-1.3-0.1c-0.8-0.1-1.6-0.1-2.3-0.2&#10;&#9;c-0.4,0-0.8-0.1-1.2-0.1c-0.9-0.1-1.9-0.2-2.8-0.3c-0.2,0-0.5-0.1-0.7-0.1c-1.2-0.1-2.3-0.3-3.5-0.5c-0.3,0-0.6-0.1-0.9-0.1&#10;&#9;c-0.9-0.1-1.7-0.2-2.6-0.4c-0.4-0.1-0.8-0.1-1.2-0.2c-0.7-0.1-1.5-0.2-2.2-0.4c-0.4-0.1-0.9-0.2-1.3-0.2c-0.7-0.1-1.4-0.3-2.2-0.4&#10;&#9;c-0.4-0.1-0.8-0.2-1.3-0.2c-0.8-0.2-1.5-0.3-2.3-0.5c-0.4-0.1-0.7-0.2-1.1-0.2c-1-0.2-2.1-0.5-3.1-0.7c-0.1,0-0.1,0-0.2,0&#10;&#9;c-1.1-0.3-2.2-0.5-3.3-0.8c-0.3-0.1-0.7-0.2-1-0.3c-0.5-0.1-1.1-0.3-1.6-0.4c0,0,0-0.1,0.1-0.1c0.3-0.8,0.6-1.7,1-2.5&#10;&#9;c0.1-0.1,0.1-0.3,0.2-0.4c0.3-0.8,0.7-1.6,1-2.4c0.1-0.1,0.1-0.3,0.2-0.4c0.4-0.8,0.7-1.6,1.1-2.4c0-0.1,0.1-0.2,0.1-0.3&#10;&#9;c0.4-0.8,0.8-1.6,1.2-2.4c0,0,0,0,0,0c0.4-0.8,0.8-1.6,1.2-2.4c0-0.1,0.1-0.2,0.1-0.2c0.4-0.8,0.8-1.5,1.2-2.2&#10;&#9;c0.1-0.1,0.1-0.2,0.2-0.3c0.4-0.7,0.8-1.4,1.2-2.1c0.1-0.1,0.1-0.2,0.2-0.4c0.4-0.7,0.8-1.4,1.2-2.1c0.1-0.1,0.1-0.2,0.2-0.3&#10;&#9;c0.4-0.7,0.8-1.4,1.3-2c0-0.1,0.1-0.2,0.1-0.2c0.5-0.7,0.9-1.4,1.4-2.1c0,0,0,0,0,0c0.5-0.7,0.9-1.3,1.4-2c0-0.1,0.1-0.1,0.1-0.2&#10;&#9;c0.5-0.6,0.9-1.2,1.4-1.8c0.1-0.1,0.1-0.2,0.2-0.3c0.5-0.6,0.9-1.2,1.4-1.7c0.1-0.1,0.2-0.2,0.2-0.3c0.5-0.6,0.9-1.1,1.4-1.7&#10;&#9;c0.1-0.1,0.1-0.2,0.2-0.3c0.5-0.6,1-1.1,1.5-1.6c0.1-0.1,0.1-0.1,0.2-0.2c0.5-0.6,1-1.1,1.6-1.6c0.5-0.5,1-1,1.5-1.4&#10;&#9;c0.1-0.1,0.1-0.1,0.2-0.2c0.5-0.4,0.9-0.9,1.4-1.3c0.1-0.1,0.2-0.2,0.3-0.2c0.5-0.4,1-0.8,1.4-1.2c0.1-0.1,0.1-0.1,0.2-0.2&#10;&#9;c0.5-0.4,1-0.8,1.5-1.2c0,0,0,0,0,0c0.5-0.4,1-0.8,1.5-1.1c0.1-0.1,0.2-0.1,0.2-0.2c0.5-0.3,1-0.7,1.5-1c0.1-0.1,0.2-0.1,0.3-0.2&#10;&#9;c0.5-0.3,1-0.6,1.5-0.9c0.1,0,0.1-0.1,0.2-0.1c0.5-0.3,1-0.6,1.5-0.9c0,0,0,0,0.1,0c0.5-0.3,1-0.5,1.6-0.8c0.1,0,0.2-0.1,0.2-0.1&#10;&#9;c0.5-0.2,1-0.5,1.5-0.7c0.1,0,0.2-0.1,0.3-0.1c0.5-0.2,1-0.4,1.6-0.6c0.1,0,0.1,0,0.2-0.1c0.5-0.2,1-0.4,1.6-0.5c0,0,0.1,0,0.1,0&#10;&#9;c0.5-0.2,1.1-0.3,1.6-0.5c0.1,0,0.2,0,0.3-0.1c0.5-0.1,1-0.3,1.6-0.4c0.1,0,0.2,0,0.3-0.1c0.5-0.1,1.1-0.2,1.6-0.3&#10;&#9;c0.1,0,0.1,0,0.2,0c0.5-0.1,1.1-0.2,1.6-0.2c0,0,0.1,0,0.1,0V183.7z M963.2,163.3c-0.1,0.1-0.2,0.1-0.4,0.2&#10;&#9;c-0.7,0.4-1.5,0.8-2.2,1.2c-0.1,0.1-0.3,0.1-0.4,0.2c-0.9,0.5-1.7,0.9-2.6,1.3c-0.2,0.1-0.4,0.2-0.6,0.3c-0.8,0.4-1.6,0.8-2.4,1.1&#10;&#9;c-0.1,0.1-0.3,0.1-0.4,0.2c-0.9,0.4-1.8,0.8-2.8,1.2c-0.2,0.1-0.4,0.2-0.7,0.3c-0.8,0.4-1.7,0.7-2.5,1.1c-0.1,0.1-0.3,0.1-0.4,0.2&#10;&#9;c-1,0.4-1.9,0.8-2.9,1.1c-0.2,0.1-0.5,0.2-0.7,0.3c-0.9,0.3-1.8,0.7-2.7,1c-0.1,0.1-0.3,0.1-0.4,0.2c-1,0.4-2,0.7-3.1,1&#10;&#9;c-0.1,0-0.2,0.1-0.3,0.1c0-0.1-0.1-0.2-0.1-0.2c-0.4-0.9-0.7-1.8-1.1-2.7c0-0.1-0.1-0.2-0.1-0.3c-0.4-1-0.8-1.9-1.2-2.8c0,0,0,0,0,0&#10;&#9;c-0.4-0.9-0.8-1.9-1.2-2.8c0-0.1-0.1-0.2-0.1-0.3c-0.4-0.9-0.8-1.7-1.2-2.6c-0.1-0.1-0.1-0.2-0.2-0.4c-0.4-0.8-0.8-1.7-1.2-2.5&#10;&#9;c-0.1-0.1-0.1-0.3-0.2-0.4c-0.4-0.8-0.8-1.6-1.3-2.4c-0.1-0.1-0.1-0.3-0.2-0.4c-0.4-0.8-0.9-1.6-1.3-2.3c-0.1-0.1-0.1-0.2-0.2-0.3&#10;&#9;c-0.5-0.8-0.9-1.6-1.4-2.3c0-0.1-0.1-0.1-0.1-0.2c-1-1.6-2-3.2-3-4.7c0-0.1-0.1-0.1-0.1-0.2c-0.5-0.7-1-1.4-1.5-2.1&#10;&#9;c-0.1-0.1-0.1-0.2-0.2-0.3c-0.5-0.7-1-1.3-1.5-2c-0.1-0.1-0.2-0.2-0.2-0.3c-0.5-0.6-1-1.3-1.5-1.9c-0.1-0.1-0.2-0.2-0.2-0.3&#10;&#9;c-0.5-0.6-1-1.2-1.6-1.8c-0.1-0.1-0.1-0.2-0.2-0.3c-0.5-0.6-1.1-1.2-1.6-1.8c0-0.1-0.1-0.1-0.2-0.2c-0.6-0.6-1.2-1.2-1.7-1.8&#10;&#9;c-0.4-0.4-0.7-0.7-1.1-1.1c-0.1-0.1-0.2-0.2-0.4-0.3c-0.3-0.2-0.5-0.5-0.8-0.7c-0.1-0.1-0.3-0.3-0.4-0.4c-0.2-0.2-0.5-0.4-0.7-0.6&#10;&#9;c-0.2-0.1-0.3-0.3-0.5-0.4c-0.2-0.2-0.4-0.4-0.7-0.6c0,0-0.1-0.1-0.1-0.1C929.2,135.5,948.2,147.1,963.2,163.3z M879.3,125&#10;&#9;c0,0,0.1,0,0.1,0c0.5,0.1,1.1,0.1,1.6,0.2c0.1,0,0.1,0,0.2,0c0.5,0.1,1.1,0.2,1.6,0.3c0.1,0,0.2,0,0.3,0.1c0.5,0.1,1,0.2,1.6,0.4&#10;&#9;c0.1,0,0.2,0,0.3,0.1c0.5,0.1,1.1,0.3,1.6,0.5c0,0,0.1,0,0.1,0c0.5,0.2,1.1,0.4,1.6,0.5c0.1,0,0.1,0,0.2,0.1c0.5,0.2,1,0.4,1.6,0.6&#10;&#9;c0.1,0,0.2,0.1,0.3,0.1c0.5,0.2,1,0.5,1.5,0.7c0.1,0,0.2,0.1,0.2,0.1c0.5,0.3,1.1,0.5,1.6,0.8c0,0,0,0,0.1,0c0.5,0.3,1,0.6,1.5,0.9&#10;&#9;c0.1,0,0.1,0.1,0.2,0.1c0.5,0.3,1,0.6,1.5,0.9c0.1,0.1,0.2,0.1,0.3,0.2c0.5,0.3,1,0.7,1.5,1c0.1,0.1,0.2,0.1,0.2,0.2&#10;&#9;c0.5,0.4,1,0.7,1.5,1.1c0,0,0,0,0,0c0.5,0.4,1,0.8,1.5,1.2c0.1,0.1,0.1,0.1,0.2,0.2c0.5,0.4,1,0.8,1.4,1.2c0.1,0.1,0.2,0.2,0.3,0.2&#10;&#9;c0.5,0.4,0.9,0.8,1.4,1.3c0.1,0.1,0.1,0.1,0.2,0.2c0.5,0.5,1,0.9,1.5,1.4c0.5,0.5,1,1.1,1.6,1.6c0.1,0.1,0.1,0.1,0.2,0.2&#10;&#9;c0.5,0.5,1,1.1,1.5,1.6c0.1,0.1,0.1,0.2,0.2,0.3c0.5,0.5,0.9,1.1,1.4,1.7c0.1,0.1,0.2,0.2,0.2,0.3c0.5,0.6,0.9,1.1,1.4,1.7&#10;&#9;c0.1,0.1,0.1,0.2,0.2,0.3c0.5,0.6,0.9,1.2,1.4,1.8c0,0.1,0.1,0.1,0.1,0.2c0.5,0.7,0.9,1.3,1.4,2c0,0,0,0,0,0&#10;&#9;c0.5,0.7,0.9,1.4,1.4,2.1c0,0.1,0.1,0.1,0.1,0.2c0.4,0.7,0.9,1.3,1.3,2c0.1,0.1,0.1,0.2,0.2,0.3c0.4,0.7,0.8,1.4,1.2,2.1&#10;&#9;c0.1,0.1,0.1,0.2,0.2,0.4c0.4,0.7,0.8,1.4,1.2,2.1c0.1,0.1,0.1,0.2,0.2,0.3c0.4,0.7,0.8,1.5,1.2,2.2c0,0.1,0.1,0.2,0.1,0.2&#10;&#9;c0.4,0.8,0.8,1.6,1.2,2.4c0,0,0,0,0,0.1c0.4,0.8,0.8,1.6,1.2,2.4c0,0.1,0.1,0.2,0.1,0.3c0.4,0.8,0.7,1.6,1.1,2.4&#10;&#9;c0.1,0.1,0.1,0.3,0.2,0.4c0.3,0.8,0.7,1.6,1,2.4c0.1,0.1,0.1,0.3,0.2,0.4c0.3,0.8,0.7,1.6,1,2.5c0,0,0,0.1,0.1,0.1&#10;&#9;c-0.5,0.1-1.1,0.3-1.6,0.4c-0.3,0.1-0.7,0.2-1,0.3c-1.1,0.3-2.2,0.5-3.3,0.8c-0.1,0-0.1,0-0.2,0c-1,0.2-2.1,0.5-3.1,0.7&#10;&#9;c-0.4,0.1-0.7,0.2-1.1,0.2c-0.8,0.2-1.5,0.3-2.3,0.5c-0.4,0.1-0.8,0.2-1.3,0.2c-0.7,0.1-1.4,0.3-2.2,0.4c-0.4,0.1-0.9,0.2-1.3,0.2&#10;&#9;c-0.7,0.1-1.5,0.3-2.2,0.4c-0.4,0.1-0.8,0.1-1.2,0.2c-0.9,0.1-1.7,0.3-2.6,0.4c-0.3,0-0.6,0.1-0.9,0.1c-1.2,0.2-2.3,0.3-3.5,0.5&#10;&#9;c-0.2,0-0.5,0.1-0.7,0.1c-0.9,0.1-1.9,0.2-2.8,0.3c-0.4,0-0.8,0.1-1.2,0.1c-0.8,0.1-1.6,0.2-2.3,0.2c-0.4,0-0.9,0.1-1.3,0.1&#10;&#9;c-0.8,0.1-1.5,0.1-2.3,0.2c-0.4,0-0.9,0.1-1.3,0.1c-0.8,0.1-1.6,0.1-2.4,0.1c-0.4,0-0.8,0-1.2,0.1c-1,0-2,0.1-3,0.1&#10;&#9;c-0.2,0-0.4,0-0.6,0c-1.1,0-2.2,0.1-3.4,0.1V125z M879.3,192.3c1.2,0,2.4-0.1,3.6-0.1c0.3,0,0.6,0,0.9,0c1,0,1.9-0.1,2.9-0.1&#10;&#9;c0.4,0,0.9,0,1.3-0.1c0.8,0,1.6-0.1,2.4-0.1c0.5,0,1-0.1,1.4-0.1c0.8-0.1,1.6-0.1,2.3-0.2c0.5,0,1-0.1,1.4-0.1&#10;&#9;c0.8-0.1,1.6-0.1,2.4-0.2c0.5,0,0.9-0.1,1.4-0.1c0.9-0.1,1.8-0.2,2.6-0.3c0.3,0,0.7-0.1,1-0.1c1.2-0.2,2.4-0.3,3.7-0.5&#10;&#9;c0.2,0,0.3,0,0.5-0.1c1.1-0.1,2.1-0.3,3.2-0.5c0.4-0.1,0.8-0.1,1.2-0.2c0.8-0.1,1.6-0.3,2.4-0.4c0.5-0.1,0.9-0.2,1.4-0.2&#10;&#9;c0.7-0.1,1.5-0.3,2.2-0.4c0.5-0.1,0.9-0.2,1.4-0.3c0.7-0.1,1.5-0.3,2.2-0.5c0.4-0.1,0.9-0.2,1.3-0.3c0.8-0.2,1.6-0.3,2.3-0.5&#10;&#9;c0.4-0.1,0.8-0.2,1.1-0.3c1.1-0.3,2.1-0.5,3.2-0.8c0.1,0,0.2,0,0.3-0.1c1-0.3,2.1-0.5,3.1-0.8c0.4,1.1,0.7,2.2,1,3.4&#10;&#9;c0.1,0.3,0.2,0.6,0.3,0.9c0.3,0.9,0.5,1.7,0.7,2.6c0.1,0.4,0.2,0.9,0.4,1.3c0.2,0.8,0.4,1.5,0.6,2.3c0.1,0.5,0.2,1,0.4,1.4&#10;&#9;c0.2,0.7,0.4,1.5,0.5,2.2c0.1,0.5,0.2,1,0.3,1.5c0.2,0.8,0.3,1.5,0.5,2.3c0.1,0.5,0.2,0.9,0.3,1.4c0.2,0.8,0.3,1.7,0.5,2.5&#10;&#9;c0.1,0.4,0.2,0.8,0.2,1.2c0.2,1.1,0.4,2.3,0.6,3.4c0,0.1,0,0.2,0.1,0.4c0.2,1.3,0.4,2.6,0.6,3.8c0.1,0.4,0.1,0.7,0.1,1.1&#10;&#9;c0.1,0.9,0.2,1.8,0.4,2.8c0.1,0.5,0.1,0.9,0.2,1.4c0.1,0.8,0.2,1.7,0.3,2.5c0.1,0.5,0.1,1,0.1,1.5c0.1,0.8,0.1,1.6,0.2,2.4&#10;&#9;c0,0.5,0.1,1,0.1,1.5c0.1,0.8,0.1,1.7,0.2,2.5c0,0.5,0.1,1,0.1,1.5c0.1,0.9,0.1,1.8,0.1,2.8c0,0.4,0,0.8,0.1,1.2&#10;&#9;c0.1,1.3,0.1,2.6,0.1,4h-62.1V192.3z M879.3,249.3h62.1c0,1.3-0.1,2.6-0.1,4c0,0.4,0,0.8-0.1,1.2c0,0.9-0.1,1.8-0.1,2.8&#10;&#9;c0,0.5-0.1,1-0.1,1.5c-0.1,0.8-0.1,1.7-0.2,2.5c0,0.5-0.1,1-0.1,1.5c-0.1,0.8-0.1,1.6-0.2,2.4c0,0.5-0.1,1-0.1,1.5&#10;&#9;c-0.1,0.8-0.2,1.7-0.3,2.5c-0.1,0.5-0.1,0.9-0.2,1.4c-0.1,0.9-0.2,1.8-0.4,2.8c0,0.4-0.1,0.7-0.1,1.1c-0.2,1.3-0.4,2.6-0.6,3.8&#10;&#9;c0,0.1,0,0.2-0.1,0.4c-0.2,1.1-0.4,2.3-0.6,3.4c-0.1,0.4-0.2,0.8-0.2,1.2c-0.2,0.8-0.3,1.7-0.5,2.5c-0.1,0.5-0.2,0.9-0.3,1.4&#10;&#9;c-0.2,0.8-0.3,1.5-0.5,2.3c-0.1,0.5-0.2,1-0.3,1.4c-0.2,0.8-0.4,1.5-0.5,2.2c-0.1,0.5-0.2,0.9-0.4,1.4c-0.2,0.8-0.4,1.5-0.6,2.3&#10;&#9;c-0.1,0.4-0.2,0.9-0.3,1.3c-0.2,0.9-0.5,1.7-0.7,2.6c-0.1,0.3-0.2,0.6-0.3,0.9c-0.3,1.1-0.7,2.3-1,3.4c-1-0.3-2.1-0.6-3.1-0.8&#10;&#9;c-0.1,0-0.1,0-0.2,0c-1.1-0.3-2.2-0.5-3.3-0.8c-0.4-0.1-0.7-0.2-1.1-0.3c-0.8-0.2-1.6-0.4-2.4-0.5c-0.4-0.1-0.9-0.2-1.3-0.3&#10;&#9;c-0.7-0.2-1.5-0.3-2.2-0.5c-0.5-0.1-0.9-0.2-1.4-0.3c-0.7-0.1-1.5-0.3-2.3-0.4c-0.4-0.1-0.9-0.2-1.3-0.2c-0.8-0.1-1.6-0.3-2.4-0.4&#10;&#9;c-0.4-0.1-0.8-0.1-1.2-0.2c-1.1-0.2-2.1-0.3-3.2-0.5c-0.1,0-0.3,0-0.4-0.1c-1.2-0.2-2.4-0.3-3.7-0.5c-0.3,0-0.7-0.1-1-0.1&#10;&#9;c-0.9-0.1-1.8-0.2-2.7-0.3c-0.4,0-0.9-0.1-1.3-0.1c-0.8-0.1-1.6-0.2-2.4-0.2c-0.5,0-0.9-0.1-1.4-0.1c-0.8-0.1-1.6-0.1-2.3-0.2&#10;&#9;c-0.5,0-0.9-0.1-1.4-0.1c-0.8-0.1-1.6-0.1-2.4-0.1c-0.4,0-0.9-0.1-1.3-0.1c-1,0-1.9-0.1-2.9-0.1c-0.3,0-0.6,0-0.9,0&#10;&#9;c-1.2,0-2.4-0.1-3.6-0.1V249.3z M905.4,351.6c-0.1,0.1-0.1,0.1-0.2,0.2c-0.5,0.4-0.9,0.9-1.4,1.3c-0.1,0.1-0.2,0.2-0.3,0.2&#10;&#9;c-0.5,0.4-1,0.8-1.4,1.2c-0.1,0.1-0.1,0.1-0.2,0.2c-0.5,0.4-1,0.8-1.5,1.2c0,0,0,0,0,0c-0.5,0.4-1,0.8-1.5,1.1&#10;&#9;c-0.1,0.1-0.2,0.1-0.2,0.2c-0.5,0.3-1,0.7-1.5,1c-0.1,0.1-0.2,0.1-0.3,0.2c-0.5,0.3-1,0.6-1.5,0.9c-0.1,0-0.1,0.1-0.2,0.1&#10;&#9;c-0.5,0.3-1,0.6-1.5,0.9c0,0,0,0-0.1,0c-0.5,0.3-1,0.5-1.6,0.8c-0.1,0-0.2,0.1-0.3,0.1c-0.5,0.2-1,0.5-1.5,0.7&#10;&#9;c-0.1,0-0.2,0.1-0.3,0.1c-0.5,0.2-1,0.4-1.6,0.6c-0.1,0-0.1,0-0.2,0.1c-0.5,0.2-1,0.4-1.6,0.5c0,0-0.1,0-0.1,0&#10;&#9;c-0.5,0.2-1.1,0.3-1.6,0.5c-0.1,0-0.2,0.1-0.3,0.1c-0.5,0.1-1,0.3-1.6,0.4c-0.1,0-0.2,0-0.3,0.1c-0.5,0.1-1.1,0.2-1.6,0.3&#10;&#9;c-0.1,0-0.1,0-0.2,0c-0.5,0.1-1,0.2-1.6,0.2c0,0-0.1,0-0.1,0v-58.7c1.1,0,2.2,0,3.4,0.1c0.2,0,0.5,0,0.7,0c1,0,1.9,0.1,2.9,0.1&#10;&#9;c0.4,0,0.8,0,1.3,0.1c0.8,0,1.5,0.1,2.3,0.1c0.5,0,0.9,0.1,1.4,0.1c0.7,0.1,1.5,0.1,2.2,0.2c0.5,0,0.9,0.1,1.4,0.1&#10;&#9;c0.8,0.1,1.5,0.1,2.3,0.2c0.4,0,0.8,0.1,1.3,0.1c0.9,0.1,1.8,0.2,2.7,0.3c0.3,0,0.5,0.1,0.8,0.1c1.2,0.1,2.3,0.3,3.5,0.5&#10;&#9;c0.3,0,0.6,0.1,0.9,0.1c0.8,0.1,1.7,0.2,2.5,0.4c0.4,0.1,0.8,0.1,1.2,0.2c0.7,0.1,1.5,0.2,2.2,0.4c0.4,0.1,0.9,0.2,1.3,0.2&#10;&#9;c0.7,0.1,1.4,0.3,2.1,0.4c0.4,0.1,0.8,0.2,1.3,0.2c0.8,0.1,1.5,0.3,2.3,0.5c0.4,0.1,0.7,0.2,1.1,0.2c1,0.2,2.1,0.5,3.1,0.7&#10;&#9;c0.1,0,0.1,0,0.2,0c1.1,0.3,2.2,0.5,3.3,0.8c0.3,0.1,0.7,0.2,1,0.3c0.5,0.1,1.1,0.3,1.6,0.4c0,0,0,0.1,0,0.1c-0.3,0.8-0.7,1.7-1,2.5&#10;&#9;c-0.1,0.1-0.1,0.3-0.2,0.4c-0.3,0.8-0.7,1.6-1,2.4c-0.1,0.1-0.1,0.2-0.2,0.4c-0.4,0.8-0.7,1.6-1.1,2.4c0,0.1-0.1,0.2-0.1,0.3&#10;&#9;c-0.4,0.8-0.8,1.6-1.2,2.5c0,0,0,0,0,0c-0.4,0.8-0.8,1.6-1.2,2.4c0,0.1-0.1,0.2-0.1,0.2c-0.4,0.8-0.8,1.5-1.2,2.2&#10;&#9;c-0.1,0.1-0.1,0.2-0.2,0.3c-0.4,0.7-0.8,1.4-1.2,2.1c-0.1,0.1-0.1,0.2-0.2,0.4c-0.4,0.7-0.8,1.4-1.2,2.1c-0.1,0.1-0.1,0.2-0.2,0.3&#10;&#9;c-0.4,0.7-0.8,1.4-1.3,2c0,0.1-0.1,0.2-0.1,0.2c-0.5,0.7-0.9,1.4-1.4,2.1c0,0,0,0,0,0c-0.5,0.7-0.9,1.3-1.4,2c0,0.1-0.1,0.1-0.1,0.2&#10;&#9;c-0.5,0.6-0.9,1.2-1.4,1.8c-0.1,0.1-0.1,0.2-0.2,0.3c-0.5,0.6-0.9,1.2-1.4,1.7c-0.1,0.1-0.2,0.2-0.2,0.3c-0.5,0.6-0.9,1.1-1.4,1.7&#10;&#9;c-0.1,0.1-0.1,0.2-0.2,0.3c-0.5,0.6-1,1.1-1.5,1.6c-0.1,0.1-0.1,0.1-0.2,0.2c-0.5,0.6-1,1.1-1.6,1.6&#10;&#9;C906.4,350.7,905.9,351.2,905.4,351.6z M908.4,360.5c0,0,0.1-0.1,0.1-0.1c0.2-0.2,0.4-0.4,0.6-0.6c0.2-0.1,0.3-0.3,0.5-0.4&#10;&#9;c0.2-0.2,0.5-0.4,0.7-0.6c0.1-0.1,0.3-0.3,0.4-0.4c0.3-0.2,0.5-0.5,0.8-0.7c0.1-0.1,0.2-0.2,0.4-0.3c0.4-0.4,0.7-0.7,1.1-1.1&#10;&#9;c0.6-0.6,1.2-1.2,1.7-1.8c0.1-0.1,0.1-0.1,0.2-0.2c0.5-0.6,1.1-1.2,1.6-1.8c0.1-0.1,0.1-0.2,0.2-0.3c0.5-0.6,1-1.2,1.6-1.8&#10;&#9;c0.1-0.1,0.2-0.2,0.2-0.3c0.5-0.6,1-1.3,1.5-1.9c0.1-0.1,0.2-0.2,0.2-0.3c0.5-0.7,1-1.3,1.5-2c0.1-0.1,0.1-0.2,0.2-0.3&#10;&#9;c0.5-0.7,1-1.4,1.5-2.1c0-0.1,0.1-0.1,0.1-0.2c0.5-0.8,1-1.5,1.5-2.3c0,0,0,0,0,0c0.5-0.8,1-1.6,1.5-2.4c0-0.1,0.1-0.1,0.1-0.2&#10;&#9;c0.5-0.8,0.9-1.5,1.4-2.3c0.1-0.1,0.1-0.2,0.2-0.3c0.4-0.8,0.9-1.5,1.3-2.3c0.1-0.1,0.1-0.3,0.2-0.4c0.4-0.8,0.8-1.6,1.3-2.4&#10;&#9;c0.1-0.1,0.1-0.3,0.2-0.4c0.4-0.8,0.8-1.6,1.2-2.5c0.1-0.1,0.1-0.2,0.2-0.4c0.4-0.9,0.8-1.7,1.2-2.6c0-0.1,0.1-0.2,0.1-0.3&#10;&#9;c0.4-0.9,0.8-1.8,1.2-2.8c0,0,0,0,0,0c0.4-0.9,0.8-1.9,1.2-2.8c0-0.1,0.1-0.2,0.1-0.3c0.4-0.9,0.7-1.8,1.1-2.7&#10;&#9;c0-0.1,0.1-0.2,0.1-0.2c0.1,0,0.2,0.1,0.3,0.1c1,0.3,2.1,0.7,3.1,1c0.1,0,0.3,0.1,0.4,0.1c0.9,0.3,1.8,0.6,2.7,1&#10;&#9;c0.2,0.1,0.5,0.2,0.7,0.3c1,0.4,2,0.8,2.9,1.1c0.1,0.1,0.3,0.1,0.4,0.2c0.8,0.3,1.7,0.7,2.5,1.1c0.2,0.1,0.4,0.2,0.7,0.3&#10;&#9;c0.9,0.4,1.9,0.8,2.8,1.2c0.1,0.1,0.3,0.1,0.4,0.2c0.8,0.4,1.6,0.8,2.4,1.1c0.2,0.1,0.4,0.2,0.6,0.3c0.9,0.4,1.7,0.9,2.6,1.3&#10;&#9;c0.1,0.1,0.2,0.1,0.4,0.2c0.8,0.4,1.5,0.8,2.2,1.2c0.1,0.1,0.2,0.1,0.3,0.2C948.2,342.9,929.2,354.5,908.4,360.5z M968.9,320.1&#10;&#9;c-0.1-0.1-0.3-0.2-0.4-0.2c-0.2-0.1-0.4-0.2-0.6-0.3c-0.4-0.3-0.9-0.5-1.3-0.7c-0.2-0.1-0.4-0.2-0.6-0.3c-0.6-0.3-1.1-0.6-1.7-0.9&#10;&#9;c-0.1,0-0.1-0.1-0.2-0.1c-0.6-0.3-1.3-0.7-1.9-1c-0.2-0.1-0.3-0.2-0.5-0.3c-0.5-0.2-1-0.5-1.5-0.7c-0.2-0.1-0.4-0.2-0.6-0.3&#10;&#9;c-0.5-0.2-1-0.5-1.5-0.7c-0.2-0.1-0.4-0.2-0.6-0.3c-1.4-0.6-2.7-1.2-4.1-1.8c-0.2-0.1-0.4-0.2-0.6-0.2c-0.5-0.2-1-0.4-1.6-0.6&#10;&#9;c-0.2-0.1-0.4-0.2-0.7-0.3c-0.5-0.2-1.1-0.4-1.6-0.6c-0.2-0.1-0.4-0.1-0.5-0.2c-0.7-0.3-1.5-0.6-2.2-0.8c-0.1,0-0.2-0.1-0.3-0.1&#10;&#9;c-0.6-0.2-1.3-0.5-1.9-0.7c-0.2-0.1-0.5-0.2-0.7-0.2c-0.5-0.2-1.1-0.4-1.6-0.5c-0.2-0.1-0.5-0.2-0.7-0.2c-0.1,0-0.3-0.1-0.4-0.1&#10;&#9;l0-0.1l-0.1,0c0.4-1.1,0.7-2.2,1-3.4c0.1-0.2,0.1-0.4,0.2-0.6c0.3-1,0.6-2.1,0.9-3.1c0.1-0.4,0.2-0.9,0.4-1.3&#10;&#9;c0.2-0.8,0.4-1.6,0.6-2.4c0.1-0.5,0.2-1,0.4-1.5c0.2-0.8,0.4-1.5,0.6-2.3c0.1-0.5,0.2-1,0.4-1.6c0.2-0.8,0.3-1.6,0.5-2.3&#10;&#9;c0.1-0.5,0.2-1,0.3-1.5c0.2-0.8,0.3-1.7,0.5-2.5c0.1-0.5,0.2-0.9,0.3-1.4c0.2-1,0.3-2,0.5-3c0.1-0.3,0.1-0.7,0.2-1&#10;&#9;c0.2-1.3,0.4-2.6,0.6-4c0-0.3,0.1-0.6,0.1-0.9c0.1-1,0.3-2.1,0.4-3.1c0.1-0.5,0.1-1,0.2-1.4c0.1-0.9,0.2-1.7,0.3-2.6&#10;&#9;c0.1-0.5,0.1-1.1,0.2-1.6c0.1-0.8,0.2-1.7,0.2-2.5c0-0.5,0.1-1.1,0.1-1.6c0.1-0.9,0.1-1.7,0.2-2.6c0-0.5,0.1-1,0.1-1.6&#10;&#9;c0.1-0.9,0.1-1.8,0.1-2.7c0-0.5,0-0.9,0.1-1.4c0-1.2,0.1-2.4,0.1-3.6c0-0.2,0-0.4,0-0.6c0,0,0-0.1,0-0.1h45.2&#10;&#9;C994.2,275.1,985,300,968.9,320.1z M949.9,240.7C949.9,240.7,949.9,240.7,949.9,240.7c0-0.3,0-0.5,0-0.7c0-1.2-0.1-2.4-0.1-3.6&#10;&#9;c0-0.5,0-0.9-0.1-1.4c0-0.9-0.1-1.8-0.1-2.7c0-0.5-0.1-1.1-0.1-1.6c-0.1-0.9-0.1-1.7-0.2-2.6c0-0.5-0.1-1.1-0.1-1.6&#10;&#9;c-0.1-0.8-0.1-1.7-0.2-2.5c-0.1-0.5-0.1-1.1-0.2-1.6c-0.1-0.9-0.2-1.7-0.3-2.6c-0.1-0.5-0.1-1-0.2-1.4c-0.1-1-0.3-2.1-0.4-3.1&#10;&#9;c0-0.3-0.1-0.6-0.1-0.9c-0.2-1.3-0.4-2.7-0.6-4c-0.1-0.3-0.1-0.7-0.2-1c-0.2-1-0.3-2-0.5-3c-0.1-0.5-0.2-1-0.3-1.4&#10;&#9;c-0.2-0.8-0.3-1.7-0.5-2.5c-0.1-0.5-0.2-1-0.3-1.5c-0.2-0.8-0.3-1.6-0.5-2.3c-0.1-0.5-0.2-1-0.4-1.6c-0.2-0.8-0.4-1.6-0.6-2.3&#10;&#9;c-0.1-0.5-0.2-1-0.4-1.5c-0.2-0.8-0.4-1.6-0.6-2.4c-0.1-0.4-0.2-0.9-0.4-1.3c-0.3-1-0.6-2.1-0.9-3.1c-0.1-0.2-0.1-0.4-0.2-0.6&#10;&#9;c-0.3-1.1-0.7-2.2-1-3.4l0.1,0l0-0.1c0.1,0,0.3-0.1,0.4-0.1c0.3-0.1,0.5-0.2,0.7-0.3c0.5-0.2,1-0.4,1.6-0.5c0.2-0.1,0.5-0.2,0.7-0.2&#10;&#9;c0.6-0.2,1.2-0.4,1.9-0.7c0.1,0,0.2-0.1,0.3-0.1c0.7-0.3,1.4-0.5,2.2-0.8c0.2-0.1,0.4-0.2,0.6-0.2c0.5-0.2,1-0.4,1.6-0.6&#10;&#9;c0.2-0.1,0.5-0.2,0.7-0.3c0.5-0.2,1-0.4,1.5-0.6c0.2-0.1,0.4-0.2,0.6-0.3c0.7-0.3,1.3-0.6,2-0.9c0,0,0,0,0.1,0&#10;&#9;c0.7-0.3,1.4-0.6,2-0.9c0.2-0.1,0.4-0.2,0.6-0.3c0.5-0.2,0.9-0.4,1.4-0.7c0.2-0.1,0.5-0.2,0.7-0.3c0.5-0.2,0.9-0.5,1.4-0.7&#10;&#9;c0.2-0.1,0.4-0.2,0.6-0.3c0.6-0.3,1.3-0.7,1.9-1c0.1-0.1,0.2-0.1,0.3-0.2c0.5-0.3,1.1-0.6,1.6-0.9c0.2-0.1,0.4-0.2,0.6-0.4&#10;&#9;c0.4-0.2,0.8-0.5,1.2-0.7c0.2-0.1,0.4-0.2,0.6-0.4c0.1-0.1,0.3-0.1,0.4-0.2c16.1,20.1,25.4,45,26.3,70.8H949.9z" transform="matrix(1, 0, 0, 1, 0, 0)"/></g></g></svg>