<?xml version="1.0" encoding="utf-8"?>
<svg id="master-artboard" viewBox="0 0 532.3468017578125 529.42919921875" version="1.1" xmlns="http://www.w3.org/2000/svg" x="0px" y="0px" style="enable-background:new 0 0 1400 980;" width="532.3468017578125px" height="529.42919921875px"><rect id="ee-background" x="0" y="0" width="532.3468017578125" height="529.42919921875" style="fill: white; fill-opacity: 0; pointer-events: none;"/><defs><style id="ee-google-fonts">@import url(https://fonts.googleapis.com/css?family=Rubik:300,300italic,400,400italic,500,500italic,700,700italic,900,900italic);</style></defs>








































<g transform="matrix(5.196180820465088, 0, 0, 5.196180820465088, -1728.2644290924072, -990.28271484375)"><g transform="matrix(1, 0, 0, 1, 2.842170943040401e-14, 7.105427357601002e-15)"><g transform="matrix(1, 0, 0, 1, 2.842170943040401e-14, 3.645084234449314e-12)">
		<path d="M 349.700012 221.399994 H 425.500015 V 280.599995 H 349.700012 V 221.399994 Z" class="st3" style="fill-rule: evenodd; clip-rule: evenodd; fill: rgb(0, 173, 238);"/>
		<path d="M 348.29998779296875 200.10000610351562 L 426.1000061035156 200.10000610351562 L 434.20001220703125 218.8000030517578 L 339.8999938964844 218.8000030517578 Z" class="st3" style="fill-rule: evenodd; clip-rule: evenodd; fill: rgb(0, 173, 238);"/>
		<path d="M 363.20001220703125 247.5 L 372.20001220703125 237.89999389648438 L 381.29998779296875 247.5 L 381.29998779296875 280.6000061035156 L 363.20001220703125 280.6000061035156 Z" class="st4" style="fill-rule: evenodd; clip-rule: evenodd; fill: rgb(255, 255, 255);"/>
		<path d="M 399.799988 239.899994 H 415.499988 V 256.599995 H 399.799988 V 239.899994 Z" class="st4" style="fill-rule: evenodd; clip-rule: evenodd; fill: rgb(255, 255, 255);"/>
		<g>
			<path d="M 401 241.899994 H 406.9 V 247.099994 H 401 V 241.899994 Z" class="st3" style="fill-rule: evenodd; clip-rule: evenodd; fill: rgb(0, 173, 238);"/>
			<path d="M 408.399994 241.899994 H 414.299994 V 247.099994 H 408.399994 V 241.899994 Z" class="st3" style="fill-rule: evenodd; clip-rule: evenodd; fill: rgb(0, 173, 238);"/>
		</g>
		<g>
			<path d="M 401 249.300003 H 406.9 V 254.500003 H 401 V 249.300003 Z" class="st3" style="fill-rule: evenodd; clip-rule: evenodd; fill: rgb(0, 173, 238);"/>
			<path d="M 408.399994 249.300003 H 414.299994 V 254.500003 H 408.399994 V 249.300003 Z" class="st3" style="fill-rule: evenodd; clip-rule: evenodd; fill: rgb(0, 173, 238);"/>
		</g>
		<path d="M 363 193.5 L 363 200.10000610351562 L 357.79998779296875 200.10000610351562 L 357.79998779296875 193.5 L 355.79998779296875 193.5 L 355.79998779296875 191.89999389648438 L 365 191.89999389648438 L 365 193.5 Z" class="st3" style="fill-rule: evenodd; clip-rule: evenodd; fill: rgb(0, 173, 238);"/>
		<g>
			<path d="M 358.299988 195.300003 H 359.699988 V 196.800003 H 358.299988 V 195.300003 Z" class="st4" style="fill-rule: evenodd; clip-rule: evenodd; fill: rgb(255, 255, 255);"/>
			<path d="M 361.100006 195.300003 H 362.500006 V 196.800003 H 361.100006 V 195.300003 Z" class="st4" style="fill-rule: evenodd; clip-rule: evenodd; fill: rgb(255, 255, 255);"/>
		</g>
	</g></g></g><g transform="matrix(2.0109286308288574, 0, 0, 2.0109286308288574, -1059.5986576080322, -92.29869842529297)"><g transform="matrix(1, 0, 0, 1, 0, 0)"><path class="st3" d="M616.5,255.5c-0.5-1-0.9-1.9-1.4-2.9v-2.2c-0.1-0.7-0.3-1.4-0.5-1.9c0-0.7,0-1.3-0.1-2c-0.4-1.8-0.9-3.5-1.4-5&#10;&#9;&#9;c0.3-0.1,0.4-0.4,0.4-0.4c0.2-0.2,0.2-0.4,0.2-0.4c-0.2-0.3-0.6-0.2-0.6-0.2c-0.1,0.1-0.3,0-0.3,0v-0.4c0.5,0,0.6-0.1,0.6-0.1&#10;&#9;&#9;c0.5-0.3,0.2-0.8,0.2-0.8c-0.2-0.3-0.8-0.2-0.8-0.2l0-0.4l0.4-0.1c0.7-0.3,0.6-0.7,0.6-0.7c0.1-0.3-0.3-0.5-0.3-0.5&#10;&#9;&#9;c-0.3,0-0.1-0.2-0.1-0.2c0.3-0.3,0-0.7,0-0.7c-0.2-0.2-0.6-0.1-0.6-0.1v-0.5c-0.1-0.1-0.2-0.1-0.3-0.2c0-1,0.1-2.2-0.2-3.1&#10;&#9;&#9;c-0.3-0.7-2.2-2.4-2.6-3.2c-0.1,0-0.1,0-0.2,0.1c0,0.1,0.1,0.2,0.1,0.2c-0.1-0.1-0.2-0.1-0.2-0.1c-0.1-0.3-0.7-0.6-0.7-0.6&#10;&#9;&#9;c-1.1-1.1-2.4-1.4-2.4-1.4c-0.3-0.1-1.1-0.4-1.1-0.4c-1.8-0.7-2.3-0.7-2.3-0.7l-0.2-0.4c0.1-0.4-0.4-0.9-0.4-0.9&#10;&#9;&#9;c-0.7-1.5-1-1.5-1-1.5l0-0.7c0.9-1.1,1-2.9,1-2.9c0.7,0,0.7-0.6,0.7-0.6c0.2-0.1,0.3-0.5,0.3-0.5c0.3-0.2,0.2-0.9,0.2-0.9&#10;&#9;&#9;c0-0.1,0-0.3,0-0.3c0.4-0.4,0.2-0.6,0.2-0.6c0.1-1-0.2-0.9-0.2-0.9c-0.3,0-0.2-0.6-0.2-0.6c0.6-3.7-1.6-4.8-1.6-4.8&#10;&#9;&#9;c-0.2-0.1-0.5-0.6-0.5-0.6c-0.7-2.9-4.5-1.6-4.5-1.6c-2.7-0.1-2.9,1.8-2.9,1.8c-1.6,0.8-2,3.1-2,3.1c0,0.1-0.1,0.2-0.1,0.2&#10;&#9;&#9;c-0.6-1.4-1.6-4.8-1.6-4.8c-0.5-2.9-1-3.9-1-3.9c0-0.4-0.2-0.6-0.2-0.6c0-0.2-0.3-0.6-0.3-0.6c-0.5-0.8-1.1-1.2-1.1-1.2&#10;&#9;&#9;c-0.9-0.9-2.1-1.4-2.1-1.4c-0.4-0.2-3.5-1.6-3.5-1.6c-0.6-0.2-3.3-1-3.3-1c-0.7-1.5-1.5-2.2-1.5-2.2l0-0.7c0.3-0.4,0.4-1.8,0.4-1.8&#10;&#9;&#9;c0.1-0.5,0.3-0.3,0.3-0.3c0.6,0.7,1-0.6,1-0.6c0.5-0.6,0.6-1.5,0.6-1.5c0.4-0.9,0.2-1.1,0.2-1.1c0.1-0.4-0.1-0.6-0.1-0.6&#10;&#9;&#9;c-0.1-0.7-0.5-0.4-0.5-0.4c-0.3,0.1-0.1-0.3-0.1-0.3c0.3-0.5,0.2-0.9,0.3-1.2c0-0.1,0.2-0.5,0.4-0.8c0.6-1,0.3-1.5,0.3-1.9&#10;&#9;&#9;c-0.1-0.4-0.3-1.3-0.5-1.7c-0.2-0.3-0.4-1-0.7-1.4c-0.3-0.4-1.4-0.5-1.7-0.4c-0.3,0.1-0.3,0-0.4,0c-0.1-0.4-1.2-1.1-1.4-1.4&#10;&#9;&#9;c-0.3-0.2-0.6-0.3-0.9-0.3c-0.3,0.1-0.8,0.1-1,0c-0.3-0.1-0.7,0-0.9,0.1c-0.2,0.2-0.9-0.1-1.5-0.1c-0.6,0-1.5,0.4-2,1.2&#10;&#9;&#9;c-0.5,0.8-0.6,1.2-0.9,1.6c-0.4,0.7-0.8,1.6-0.8,1.6c-1,1.9-0.1,2.7-0.1,2.7c0.1,0.2,0.1,0.5,0.1,0.5c-0.1,0.6,0.1,0.8,0.1,0.8&#10;&#9;&#9;c0.1,0.5,0,0.5,0,0.5c-0.4-0.2-0.4,0.5-0.4,0.5c-0.2,0.4,0.1,1.1,0.1,1.1c0.1,0.2,0.2,0.7,0.2,0.7c0,0.9,0.3,1.3,0.3,1.3&#10;&#9;&#9;c0.3,1,0.7,0.3,0.7,0.3c0.1-0.3,0.2,0,0.2,0c0,0.1,0.1,0.6,0.1,0.6c0,0.7,0.1,1.1,0.1,1.1l0,1.9c-0.8,0.8-1.4,1.9-1.4,1.9&#10;&#9;&#9;c-0.1,0-0.5,0.3-0.5,0.3c-0.4,0-0.7,0.2-0.7,0.2c-1.3,0.5-2.5,1-3.5,1.4c-1.2,0.5-1.9,0.8-1.9,0.8c-0.6,0.2-0.9,0.6-0.9,0.6&#10;&#9;&#9;c-0.7,0.5-1.1,1-1.1,1c-0.2,0.4-0.6,0.8-0.6,0.8c-0.2,0.1-0.2,0.4-0.2,0.4c-0.2,0.3-0.2,0.9-0.2,0.9c-0.4,1-0.9,2.2-1.3,3.4&#10;&#9;&#9;c-1,2.4-1.9,5.2-1.9,5.2c-0.3,0.6-0.5,1-0.5,1c-0.4,0.8-0.4,1-0.4,1c-0.3,0.4-0.8,1.4-0.8,1.4c-0.5,0.9-0.4,1.2-0.4,1.2&#10;&#9;&#9;c-0.3,0.4-0.2,0.8-0.2,0.8c0.1,0.2,0,0.6,0,0.6c0,0.3-0.3,0.1-0.3,0.1c-0.1,0-0.5-0.4-0.5-0.4c-0.1-0.2-0.3-0.3-0.4-0.4&#10;&#9;&#9;c-0.5,0-0.6-0.5-0.6-1c0.2-0.2,0.4-0.7,0.5-0.8c0.1-0.1,0.1-0.2,0.1-0.5c0.1-0.1,0.3-0.4,0.4-0.8c0.1-0.4,0.2-0.8,0.3-1.1&#10;&#9;&#9;c0,0,0.3-1,0.3-1.6c0-0.4,0.2-1.1,0.2-1.1c0.5-0.5,0.5-0.8,0.5-0.8c0.2-0.7-0.2-0.6-0.2-0.6c-0.2,0-0.1-0.1-0.1-0.1&#10;&#9;&#9;c0.3-0.8,0.1-2,0.1-2c-0.9-4.7-4.8-5.2-5.1-5.3c-0.3,0-1.5,0-1.5,0c-4.6,0.1-5.5,8-5.5,8c0,3.8-1.7,8.4-1.7,8.4&#10;&#9;&#9;c-0.2,1.4-0.5,1.6-0.6,1.6c0,0,0,0,0,0c-0.3,0.1-0.6,0.2-0.9,0.2c-1,0.4-1.4,1.5-1.8,2.4c-0.2,0.5-0.2,0.8-0.3,1.3&#10;&#9;&#9;c-0.1,0.2-0.2,0.4-0.2,0.6c0,0.2,0,0.3,0,0.5c-0.1,0.3-0.2,0.5-0.3,0.8c-0.1,0.4-0.1,0.8-0.2,1.1c-0.2,0.8-0.4,1.7-0.6,2.5&#10;&#9;&#9;c-0.2,0.7-0.2,1.3-0.4,2c-0.1,0.2-0.2,0.3-0.2,0.4c-0.1,0.3-0.2,0.7-0.2,1c0,0.3-0.1,0.6-0.1,0.9c-0.1,0.2-0.2,0.3-0.3,0.5&#10;&#9;&#9;c0,0.2,0,0.4,0,0.5c-0.1,0.2-0.3,0.4-0.2,0.7c0,0.1,0.1,0.2,0.1,0.4c0,0.2,0,0.3,0,0.5c0,0,0,0,0,0.1c0,0.2,0,0.4-0.1,0.5&#10;&#9;&#9;c0,0,0,0,0,0c0,0,0.1,0.1,0.1,0.1c0.1,0.6,0.2,1.3,0.3,1.8c0,0.2,0.1,0.5,0.1,0.7c0.1,0.3,0.1,0.5,0.2,0.7c0.2,0.9,0.4,1.8,0.7,2.7&#10;&#9;&#9;c0,0,0,0.1,0.1,0.1c0,0.1,0,0.2,0.1,0.3c0,0,0,0,0,0c0.2,0.3,0.4,0.7,0.5,1c0.1,0.4,0.2,0.9,0.4,1.4l0.8,1.5&#10;&#9;&#9;c0.1,0.8,0.1,1.6,0.2,2.5c0.1,0.3,0.8,0.8,1.5,1.2c-0.2,1.7-0.5,3.2-1,4.4c0,0.1-0.1,0.1-0.1,0.2c0,0.9,0,1.6,0,1.6&#10;&#9;&#9;c0.1,5.4,0.5,8.3,0.5,8.3c-0.1,1.3,0.2,3.7,0.2,3.7c0.2,1.6,0,2.9,0,2.9c-0.3,0.3-0.1,0.9-0.1,0.9c0,0.5-0.1,1.3-0.1,1.3&#10;&#9;&#9;c-0.5,0.7-0.3,0.8-0.3,0.8c0.1,0.3,0,0.7,0,0.7c-0.2,0.4-0.2,0.9-0.2,0.9c-0.1,0.3-0.1,0.7-0.1,0.7c-0.5,0.5-0.3,1-0.3,1&#10;&#9;&#9;c0.2,0.4,0,0.7,0,0.7c-0.2,0.4-0.1,4.3-0.1,4.3c0.1,0.8,0,2.9-0.1,4.7c0,1.2-0.1,2-0.1,2c0,0.2-0.1,1.1-0.1,1.1&#10;&#9;&#9;c0.1,0.3,0.9,1.3,0.9,1.3c0,0.2-0.1,0.6-0.1,1c0,0.5,0,1,0,1c0,0.2-0.2,0.3-0.2,0.4c-0.1,0.2-0.1,0.3-0.1,0.3&#10;&#9;&#9;c-0.4,0.3-0.6,0.7-0.8,0.9c-0.2,0.2-0.3,0.4-0.3,0.4c-0.2,0.4-0.2,1-0.2,1c-0.2,0.5-1.2,1.7-1.2,1.7c-0.2,0.3-0.2,0.4-0.2,0.4&#10;&#9;&#9;l-0.2,0.3c-0.4,0.7,0.1,1.3,0.1,1.3c-0.4,0.6-0.3,0.9-0.3,0.9c2.1,0.5,4,0.4,4,0.4c1.3,0.1,1.6-1,1.6-1c0.1-0.8,0.4-1,0.4-1&#10;&#9;&#9;c1-0.8,1.2-1.1,1.2-1.1c0.1-0.3-0.2-0.9-0.2-0.9c-0.1-0.1,0-1,0-1c0.2-0.5-0.2-1.5-0.2-1.5c0.1-0.2,0-0.5,0-0.5&#10;&#9;&#9;c-0.2-0.2,0.1-1,0.1-1c0.3-0.8-0.1-1.6-0.1-1.6c0.3,0,1.2-0.2,1.2-0.2c0.7,0,2-0.3,2-0.3c0.4,0,0.3-0.3,0.3-0.3c0-0.4,0-1,0-1&#10;&#9;&#9;c0.1-1.8-0.2-7.8-0.2-7.8c0-3.4,0-5,0-5c0.1-0.2,0.1-4,0.1-4c0.1-0.5,0.1-1.6,0.1-1.6c0.1-0.4,0.1-0.8,0.1-0.8&#10;&#9;&#9;c0.2-0.2,0.2-1.7,0.2-1.7c0-3.9,0.4-6.2,0.4-6.2c0.1-0.2,0.1-0.7,0.1-0.7c0.2-0.8,1.1-6.3,1.1-6.3c0-0.2,0.4-0.1,0.4-0.1&#10;&#9;&#9;c0.2,0.2,0.2,0.4,0.2,0.4c0,0.4,0.3,1.4,0.3,1.4c0.1,0.5,1,6,1,6c0.1,0.8,0.2,3.5,0.2,3.5c0,1.9,0.1,3.5,0.1,3.5&#10;&#9;&#9;c0,0.5,0.1,0.9,0.1,0.9c-0.1,0.6,0.1,1.7,0.1,1.7c-0.1,0.8,0.1,1.5,0.1,1.5c0.1,0.2,0.2,1.9,0.2,1.9c-0.1,0.7,0.2,3.2,0.2,3.2&#10;&#9;&#9;c0,0.5,0.2,2,0.2,2c0.1,2.5,0,5.8-0.1,7.6c0,0.9-0.1,1.4-0.1,1.4c-0.1,0.3,0,0.5,0,0.5c0.6,0.7,2.1,1.5,2.1,1.5&#10;&#9;&#9;c-0.2,0.2-0.1,0.7-0.1,0.7c0.1,0.5,0,1.3,0,1.3l-0.2,0.2c-0.4,0.8-0.4,1.7-0.4,1.7c0,0.2-0.2,0.9-0.2,0.9c-0.3,0.4-0.5,1.2-0.5,1.2&#10;&#9;&#9;c-0.3,1,0.1,1.8,0.1,1.8c-0.2,0.5-0.1,0.7-0.1,0.7c0.9,0.6,3.7,0.4,3.7,0.4c1.4,0.2,1.7-0.7,1.7-0.7c0.2-0.2,0.1-1,0.1-1&#10;&#9;&#9;c0.3-0.4,0.2-1.5,0.2-1.5c-0.1-0.4,0.1-0.7,0.1-0.7c0.2-0.2,0.2-0.6,0.2-0.6c0-0.9,0.3,0,0.3,0c0.3,0.4,0.4-0.1,0.4-0.1&#10;&#9;&#9;c0.1-0.5-0.3-0.8-0.3-0.8c-0.2,0-0.4-0.7-0.4-0.7c-0.1-0.3-0.2-0.1-0.2-0.1c0.1-0.1-0.2-0.4-0.2-0.4c0.2-0.3-0.2-0.8-0.2-0.8&#10;&#9;&#9;c0.1-0.6,0-1,0-1c0.1-0.2,0-0.7,0-0.7c0.9-0.3,0.6-0.5,0.6-0.5c0.1-0.1,0.1-0.9,0.1-0.9c0-0.4,0-0.8,0-0.8c0.1-0.3,0.3-3.1,0.3-3.1&#10;&#9;&#9;c0.3-3.2,0-5.5,0-5.5c0-0.9,0-3.1,0-3.1c0.2-1.2-0.1-1.4-0.1-1.4c0-1.2-0.2-1.3-0.2-1.3c0-0.6-0.1-0.9-0.1-0.9&#10;&#9;&#9;c-0.1-0.1-0.1-0.3-0.1-0.3c0-0.6-0.1-1-0.1-1c-0.1-0.2-0.1-0.2-0.1-0.2c0.1-1-0.2-1.3-0.2-1.3c0.1-0.3-0.1-0.6-0.1-0.6&#10;&#9;&#9;c0.2-0.4-0.1-0.8-0.1-0.8c0.3-0.6-0.1-0.9-0.1-0.9c0-0.2,0-0.7,0-0.7c0.2-0.8-0.1-1.1-0.1-1.1c0.1-0.1,0.1-0.7,0.1-0.7&#10;&#9;&#9;c0.3-0.4,0-0.9,0-0.9c0.6-5.1,0.6-6.9,0.6-6.9c0.2-0.3,0-0.5,0-0.5c0.1-0.6,0.2-3.7,0.2-3.7c0.2-0.3,0-0.7,0-0.7&#10;&#9;&#9;c0.1-1.7-0.1-1.7-0.1-1.7c0.1-0.9-0.2-1.8-0.2-1.8c0-0.7-0.2-1.2-0.2-1.2c-0.1-0.2-0.1-0.5-0.1-0.5c1.1-0.3,1.1-0.5,1.1-0.5&#10;&#9;&#9;c0.6-0.3,0.4-1.4,0.4-1.4c0-0.3,0.2-0.7,0.2-0.7c0.1,0,4.7-0.3,4.7-0.3c-0.1,0.6-0.1,1.8-0.1,1.8c0.1,0.5,0,1.6,0,1.6&#10;&#9;&#9;c-0.1,0.3-0.1,0.6-0.1,0.6c0,1.1-0.1,2.8,0,4.9c0.2,4.3,0.6,9.5,0.6,9.5c0.1,1.3,0.2,3.9,0.2,3.9c-0.2,0.6-0.2,2.2-0.2,2.2&#10;&#9;&#9;c-0.2,1-0.1,1.8-0.1,1.8c-0.2,1.8-0.1,2-0.1,2c-0.1,0.3,0,1.6,0,1.6c-0.4,5.3-0.2,5.8-0.2,5.8c0.1,0.6,0.4,2,0.4,2&#10;&#9;&#9;c0.1,1.9,0.5,2.7,0.5,2.7c0.4,0.7,2.1,1.8,2.1,1.8c0.6,0.4,0.2,0.4,0.2,0.4c-1.3-0.2-1.6,0.2-1.6,0.2c-1,0.3-0.9,0.8-0.9,0.8&#10;&#9;&#9;c0,0.9,1.5,1.8,1.5,1.8l0.1,0.1l0.1,0.5c-0.3,0.8-0.1,1.6-0.1,1.6c0.2,0.1,0.1,0.2,0.1,0.2l-1.4,1.4c-1.7,1.7-1.6,3.1-1.6,3.1&#10;&#9;&#9;c0,0.4,0,0.4,0,0.4l-0.2,0.4c-0.3,0.9,0.3,0.9,0.3,0.9c3.3,0.5,5.2,0.5,5.2,0.5c1.6-0.1,2.1-1.1,2.1-1.1c0.4-0.2,0.4-1.8,0.4-1.8&#10;&#9;&#9;c0.7-0.1,2.2-1,2.2-1c0.6-0.4,0.5-1.1,0.5-1.1c-0.1-0.6-0.3-1.3-0.3-1.3c0.4-0.2,0.7-0.8,0.7-0.8c0.1-0.2,0.5-0.9,0.5-0.9&#10;&#9;&#9;c0.4-0.1,0.4-1,0.4-1c-0.2-1,0.1-1.9,0.1-1.9c0.8-0.9,1.1-1.7,1.1-1.7c0.7-1,0-2.9,0-2.9c-0.2-0.8-0.8-3.2-0.8-3.2&#10;&#9;&#9;c-0.3-0.9-1.3-2.5-1.3-2.5c-0.7-0.6-0.5-1.1-0.5-1.1c0.3-2.4,0.1-2.8,0.1-2.8c0-0.3,0-0.9,0-0.9c0.3-1.4-0.1-2.9-0.1-2.9&#10;&#9;&#9;c-0.1-0.5-0.1-1-0.1-1c0.3-1.3,0-1.9,0-1.9c-0.5-1.8,0.1-3.6,0.1-3.6c0.5-0.9,0.6-1.8,0.6-1.8c0.1-0.9,0.4-1.4,0.4-1.4&#10;&#9;&#9;c0.6-1.5,0.4-1.9,0.4-1.9c0.2-1.5-0.1-3.3-0.1-3.3c-0.1-0.7-0.1-0.9-0.1-0.9c0.1-0.2,0.6-1.5,0.6-1.5c1-2,1.1-3.3,1.1-3.3&#10;&#9;&#9;c0.2-1.2,0.3,0.6,0.3,0.6c0,0.9,0.4,1.7,0.4,1.7c0.2,0.2,0.2,0.4,0.2,0.4c0.1,1.3,1.3,6.6,1.3,6.6c0.2,0.3,0.2,1.1,0.2,1.1&#10;&#9;&#9;c0.2,3.1,1.1,4.4,1.1,4.4c0.5,0.9,0.7,1.9,0.7,1.9c0.1,0.7-0.2,2.7-0.2,2.7c-0.3,0.9-0.1,1.8-0.1,1.8c-0.1,0.4,0.2,0.9,0.2,0.9&#10;&#9;&#9;c-0.5,2-0.3,2.6-0.3,2.6c0,0.6-0.4,1.6-0.4,1.6c-0.5,1-0.4,1.2-0.4,1.2c0,4.5,0.4,6.1,0.4,6.1c0.1,0.9,0.6,1.7,0.6,1.7&#10;&#9;&#9;c0.1,0.3,0.3,0.7,0.3,0.7c0.2,0.4,0.5,0.4,0.5,0.4l0.5,0.2c0.4,0.2,0.1,0.3,0.1,0.3c-0.3,0.2-0.9,0.6-0.9,0.6&#10;&#9;&#9;c-0.9,0.6-0.9,0.9-0.9,0.9c-0.2,1,0.1,2,0.1,2c0,1.3,1,2.4,1,2.4c0.4,0.3,0.6,0.7,0.6,0.7c-0.2,0.3-0.2,0.7-0.2,0.7&#10;&#9;&#9;c-0.5,1.5,1.1,2,1.1,2c0.5,0.1,0.4,0.5,0.4,0.5c-0.3,0.8-0.2,1.4-0.2,1.4c0.2,1.9,2.3,1.6,2.3,1.6c2.9-0.3,4.5-0.2,4.5-0.2&#10;&#9;&#9;c0.1,0,0.4,0,0.4,0c0.9-0.5,0.2-2,0.2-2c0.2-1.8-0.6-2.7-0.6-2.7c-0.4-0.7-1.2-1.7-1.2-1.7c-0.3-0.4,0.4,0.1,0.4,0.1l0.7,0.6&#10;&#9;&#9;c0.1,0,0.1,0,0.1,0l-0.7-0.6c0-0.1-0.3-0.2-0.3-0.2c-0.2-0.1,0-0.2,0-0.2c0.4-0.3,0.6-1.1,0.6-1.1c0-0.2,0-0.2,0-0.2&#10;&#9;&#9;c0.1-0.3,0.4-0.7,0.4-0.7c0.4-0.4,0.5-0.9,0.5-0.9c0.1-0.1,0.1-1.2,0.1-1.2c-0.1-0.4-0.6-0.4-0.6-0.4c-0.3,0-0.6-0.2-0.6-0.2&#10;&#9;&#9;c-0.3,0.1-0.1-0.2-0.1-0.2c0.1-0.1,0.4-1,0.4-1c0-0.2,0.6-1.6,0.6-1.6c0.8-1.8,0.9-3.1,0.9-3.1c0-0.3,0.1-2.4,0.1-2.4&#10;&#9;&#9;c0.1-1.9-0.2-2.7-0.2-2.7c0-0.3-0.2-1.9-0.2-1.9c0-0.3-0.1-0.5-0.1-0.5c0-0.2,0-0.4,0-0.4c0-0.3-0.1-0.5-0.1-0.5&#10;&#9;&#9;c0-0.5-0.1-0.8-0.1-0.8c0-0.3,0-0.5,0-0.5c0-0.7-0.1-1.5-0.1-1.5c-0.1-0.4-0.2-1.8-0.2-1.8c-0.2-2.7-0.2-2.8-0.2-2.8&#10;&#9;&#9;c-0.1-1.4,0-2.9,0-2.9c0.1-1.2,0.1-3.4,0.1-3.4c0-0.8-0.2-3.6-0.2-3.6c0-2,0-3.6,0-3.6c0.1-0.9,0.1-3,0.1-3c0-0.3,0.1-2.5,0.1-2.5&#10;&#9;&#9;l0.9,0c0,1.1,0.2,4.5,0.2,4.5c0.1,0.3,0.1,1.3,0.1,1.3c-0.2,0.2,0,0.7,0,0.7s0,0.5,0,0.6c0,0.4,0,0.3,0.1,0.3c0.1,0,0.2,0,0.2,0&#10;&#9;&#9;c0,0.2,0.1,1.5,0.1,1.5c-0.1,0.3,0.1,1.7,0.1,1.7c0.1,0.4,0.1,1.8,0.1,1.8c-0.3,1.4,0.1,2.4,0.1,2.4c0.2,0.3,0.1,0.9,0.1,0.9&#10;&#9;&#9;c-0.1,0.1-0.1,0.9,0,1.6c0,0.8,0.1,1.4,0.1,1.4c0,0.5,0.2,0.4,0.2,0.4c0.2,0.1,0.2,0.3,0.2,0.3c0,0.3,0.2,1.8,0.2,1.8&#10;&#9;&#9;c0,1.5,0.2,3.2,0.2,3.2c0,0.2,0.1,0.9,0.1,0.9c0,1.6,0,1.7,0,1.7c0.1,0.1,0.1,0.5,0.1,0.5c-0.1,0.2,0,0.5,0,0.5&#10;&#9;&#9;c-0.1,0.2-0.1,0.4-0.1,0.4c-0.3,0.5-0.3,0.8-0.3,0.8c-0.2,0.5-0.1,0.5-0.1,0.5c0.1,0.1,0.1,0.3,0.1,0.3c-0.1,0.2,0,0.3,0,0.3&#10;&#9;&#9;c-0.1,0.7,0.1,0.5,0.1,0.5c0.1-0.1,0.2,0,0.2,0c-0.1,0.8,0.1,1.9,0.1,1.9c0.2,0.4,0.1,0.8,0.1,0.8c-0.2,1.1-0.2,2.4-0.2,2.4&#10;&#9;&#9;c0.1,0.2,0,0.4,0,0.4c-0.1,0.3-0.2,1.3-0.2,1.3c-0.1,0.9-0.2,1.8-0.2,2.5c-0.1,2.4,0.1,3.8,0.1,3.8c0,0.1,0.1,0.3,0.2,0.5&#10;&#9;&#9;c0.2,0.5,0.5,1.3,0.5,1.3c0,0.6,0.1,1.5,0.1,1.5c0.2,0,0.1,0.2,0.1,0.2c-0.1,0.1-0.1,0.2-0.1,0.2s-0.3,0.3-0.5,0.5&#10;&#9;&#9;c-0.1,0.1-0.2,0.2-0.2,0.2c-0.2,0.2-0.1,0.2-0.1,0.2c0.2,0.1,0,0.2,0,0.2c-0.6,0.7-1.3,1.9-1.3,1.9c-0.1,0.2-0.1,0.9-0.1,0.9&#10;&#9;&#9;c-0.1,1,0.6,1,0.6,1c0.8,0.2,3.1,0.5,3.1,0.5c1.5,0.2,2,0.1,2,0.1c1.2,0,1.3-0.9,1.3-0.9c0.1-0.9,0.4-0.9,0.4-0.9&#10;&#9;&#9;c0,0.2,0.3,0.1,0.3,0.1c0.4-0.1,1.5-0.8,1.5-0.8c0.5-0.2,0.4-0.8,0.4-0.8c0.1-0.5-0.1-1.3-0.1-1.3c0.1-0.3-0.1-0.3-0.1-0.3&#10;&#9;&#9;c-0.1-0.1,0-0.3,0-0.3c-0.1-0.2-0.1-0.3-0.1-0.3c0-0.1,0.3-1.4,0.3-1.4c0.1-0.2,0.2-0.6,0.2-0.6c0-1.7-0.4-3.4-0.4-3.4&#10;&#9;&#9;c-0.1-0.2,0-0.4,0-0.4c0.1-0.1,0.7-1,0.7-1c0.3-0.7,0.4,0.1,0.4,0.1c0.4,1.5,1.2,3.3,1.2,3.3c0.4,0.7,0.4,1,0.4,1&#10;&#9;&#9;c0,0.6,0.1,0.7,0.1,0.7c0.2,0.2,0.1,0.3,0.1,0.3c0,0.3,0.3,1.3,0.3,1.3c0.1,0.1,0,0.2,0,0.2c-0.1,0.1-0.1,0.4-0.1,0.4&#10;&#9;&#9;c-0.1,0.1,0,0.4,0,0.4c-0.1,0.1-0.1,1.1-0.1,1.1c-0.1,0.4,0.1,0.6,0.1,0.6c0.3,0.4,1.1,1,1.1,1c0.3,0.3,0.7,0.2,0.7,0.2&#10;&#9;&#9;c0,0.5,0.1,1.1,0.1,1.1c0.2,1.2,1.8,1.1,1.8,1.1c1.7,0.1,4.1-0.2,4.1-0.2c0.8,0,0.8-0.8,0.8-0.8c0-1.2-0.2-1.5-0.2-1.5&#10;&#9;&#9;c-0.1-0.3-1-1.7-1-1.7c-0.4-0.6-0.4-0.4-0.4-0.4c0-0.3-0.3-0.4-0.3-0.4c-0.4-0.6-0.5-1.3-0.5-1.3l0.1-0.1l0-1.2&#10;&#9;&#9;c0.2-0.6,0.1-0.9,0.1-0.9c-0.3-0.5-0.5-1.6-0.5-1.6c0.2,0,0.5-0.7,0.5-0.7c0.2-0.3,0.2-0.5,0.2-0.5c0-0.2,0.2-1.7,0.2-1.7&#10;&#9;&#9;c0.1-0.4,0.1-1.1,0.1-1.1c0-0.7-0.4-3-0.4-3c-0.1-0.2-0.1-0.9-0.1-0.9c0.1-2.6,0-3.1,0-3.1c0.1-0.3,0.1-0.9,0.1-0.9&#10;&#9;&#9;c0.4-0.6,0.1-1.6,0.1-1.6c-0.1-0.2,0-0.4,0-0.4c0.1-0.2,0.1-1.1,0.1-1.1c0.3-0.7,0.2-1.7,0.2-1.7c-0.1-0.4,0-0.9,0-0.9&#10;&#9;&#9;c0.1-0.1,0.3-1.7,0.3-1.7c0.1-0.7-0.1-3.1-0.1-3.1c0.2-0.6,0.4-1.8,0.4-1.8c0.3-0.2,0.1-1.5,0.1-1.5c0-1.1-0.1-1.3-0.1-1.3&#10;&#9;&#9;c-0.1-0.2-0.1-0.8-0.1-0.8c0-0.3,0-0.9,0-0.9c-0.1-0.4,0-0.9,0-0.9c0-2.9-0.2-4.3-0.2-4.3c-0.1-0.4-0.1-1.2-0.1-1.2&#10;&#9;&#9;c0.1-1.2-0.1-1.5-0.1-1.5c-0.1-0.2,0.1-0.3,0.1-0.3l0.5-0.2c1,0,0.8-0.2,0.8-0.2c0.3,0,0.4-0.1,0.4-0.1c0.1-1.1-0.1-1.2-0.1-1.2&#10;&#9;&#9;c0-0.2-0.1-0.6-0.1-0.6c0-0.5-0.1-0.9-0.1-0.9c-0.1-1.2-0.6-3.1-0.6-3.1c0-0.1,0-0.2,0-0.2c-0.1-0.6,0-1.2,0.1-1.8c0,0,0,0,0,0&#10;&#9;&#9;c0-0.1,0-0.2,0-0.3c0,0,0,0,0,0c-0.1-0.3-0.1-0.6-0.2-0.8c0,0,0,0,0-0.1c-0.8-1.8-0.7-3.9,0.5-5.3c0,0,0,0,0,0&#10;&#9;&#9;c0.1-0.1,0.2-0.1,0.3-0.2v0.1c0.4,1.6,0.9,3.3,1.3,4.9c0.8,2.7,1.8,5.7,3.2,7.8c-0.3,1.2-2.7,1.3-1.6,3.3h1.3&#10;&#9;&#9;c0.2,0.1,0.3,0.2,0.6,0.3C614.8,259.1,616.7,256.3,616.5,255.5z M535.1,297.9c0,0.1-0.1,0.1-0.1,0c0-0.2,0.1-0.3,0.1-0.3&#10;&#9;&#9;c0,0,0.1,0,0.1,0.1C535.2,297.8,535.1,297.8,535.1,297.9z M536.2,240.9c0,0,0-0.1,0-0.1c0.7,1.7,1.1,3.6,1.2,5.5&#10;&#9;&#9;c-0.1-0.8-0.3-1.7-0.5-2.4C536.7,242.9,536.5,241.9,536.2,240.9z M561.6,222.3c0,0-0.2,0.7-0.4,2.4c-0.2,1-0.4,2.2-0.7,3.5&#10;&#9;&#9;c0,0-0.2,0.1-0.2-0.2l0-0.5l-0.5,0c0,0-0.2-2.3-0.7-2.5c0,0-0.4-1.7-0.6-1.9c0,0,0.6-0.2,1-1.6c0,0,0-0.1,0.3-0.3&#10;&#9;&#9;c0,0,0.7-0.5,1.8-2c0,0,0.3-0.5,0.3,0.1C562,219.3,562.1,219.7,561.6,222.3z M586.9,230.5l-0.7,0c0,0-0.2-1.5-0.4-1.8&#10;&#9;&#9;c0,0,0.1-0.9-0.4-2.7c0,0-0.5-2.4-0.6-3c0,0-0.1-1.5-0.1-1.6c0,0,0-0.7,0.3-0.1c0,0,0.2,0.7,0.6,1.7c0,0,0.2,0.1,0.1,0.4l-0.1,0.7&#10;&#9;&#9;c0,0,0,0.3,0.1,0.6c0,0,0.3,0.8,0.5,1c0,0,0.3,0.8,0.6,1.2c0,0,0.4,0.8,0.9,1.1c0,0,0.1,0.1,0.3,0.4c0,0-0.2,0.2-0.2,0.3l0.2,0.3&#10;&#9;&#9;C587.9,229,587.1,229.8,586.9,230.5z M594.2,223.6c0,0-0.1-0.5-0.4-0.9c0,0-0.1-0.1-0.1-0.3c0,0,0.1-0.3-0.5-0.5c0,0-0.2-0.3,0-0.6&#10;&#9;&#9;c0,0,0.1-0.3,0.1-0.9c0,0,0.3,0.1,0.4,0c0,0,0.2,0,0.2,0.3c0,0,0.2,1.2,0.7,1.9c0,0,0.1,1,0.1,1.1L594.2,223.6z" style="fill-rule: evenodd; clip-rule: evenodd; fill: rgb(51, 51, 51); opacity: 1;" transform="matrix(1, 0, 0, 1, 0, 0)"/></g></g></svg>